<svg width="24" height="24" viewBox="0 0 24 24" fill="none" xmlns="http://www.w3.org/2000/svg">
<path d="M22.9124 15.2732C22.3096 15.2732 21.8221 15.7607 21.8221 16.3634V21.817H2.1806V16.3634C2.1806 15.7607 1.69305 15.2732 1.0903 15.2732C0.487554 15.2732 0 15.7607 0 16.3634V22.9098C0 23.5098 0.487554 24 1.0903 24H22.9097C23.5124 24 24 23.5125 24 22.9098V16.3634C24.0027 15.7607 23.5151 15.2732 22.9124 15.2732ZM11.1977 19.2857C11.2191 19.3098 11.2432 19.3339 11.27 19.358C11.7147 19.7652 12.4058 19.7304 12.8104 19.2857L18.811 12.742C19.2209 12.2973 19.1914 11.6036 18.7467 11.1938C18.302 10.7839 17.6082 10.8134 17.1983 11.258L13.0943 15.7366V1.09018C13.0943 0.4875 12.6068 0 12.004 0C11.4013 0 10.911 0.4875 10.911 1.09018H10.9137V15.742L6.80701 11.2554C6.39714 10.8107 5.70331 10.7812 5.25862 11.1911C4.81393 11.6009 4.78446 12.2946 5.19433 12.7393L11.1977 19.2857Z" fill="white"/>
</svg>
