<svg width="15" height="13" viewBox="0 0 15 13" fill="none" xmlns="http://www.w3.org/2000/svg">
<path d="M1.79035e-06 4.61999C-1.83286e-05 3.7008 0.259239 2.8025 0.744613 2.03999C1.22999 1.27748 1.91941 0.685419 2.7247 0.339543C3.52999 -0.00633254 4.41454 -0.0903014 5.2652 0.098377C6.11587 0.287055 6.89397 0.739803 7.49999 1.39871C8.10602 0.739803 8.88412 0.287055 9.73479 0.098377C10.5854 -0.0903014 11.47 -0.00633254 12.2753 0.339543C13.0806 0.685419 13.77 1.27748 14.2554 2.03999C14.7407 2.8025 15 3.7008 15 4.61999C15.0017 5.34156 14.8427 6.05341 14.5359 6.69792C14.229 7.34243 13.7831 7.90149 13.234 8.32985L8.29049 12.6378C8.01561 12.8774 7.66907 13.0057 7.31288 12.9998C6.9567 12.9939 6.61413 12.8541 6.3465 12.6055L1.5315 8.13262C1.05085 7.6994 0.66496 7.1609 0.400525 6.5544C0.13609 5.94789 -0.000570554 5.28786 1.79035e-06 4.61999Z" fill="#00AEFF"/>
</svg>
