<svg width="11" height="11" viewBox="0 0 11 11" fill="none" xmlns="http://www.w3.org/2000/svg">
<path d="M5.95768 0.646642C5.86854 0.962452 5.82347 1.28907 5.82376 1.61722C5.82376 3.58281 7.41709 5.17615 9.38269 5.17615C9.71079 5.17646 10.0375 5.13135 10.3533 5.04223V9.0586C10.3533 10.1308 9.48412 10.9998 8.41212 10.9998H1.94131C0.869148 10.9998 0.00015774 10.1306 0 9.0586V2.58779C0 1.51563 0.869148 0.646484 1.94131 0.646484H5.95768V0.646642Z" fill="#666666"/>
<path opacity="0.3" d="M7.76562 1.61762C7.76563 2.04664 7.93605 2.45809 8.23942 2.76146C8.54278 3.06482 8.95423 3.23525 9.38325 3.23525C9.81227 3.23525 10.2237 3.06482 10.5271 2.76146C10.8304 2.45809 11.0009 2.04664 11.0009 1.61762C11.0009 1.1886 10.8304 0.777155 10.5271 0.473791C10.2237 0.170428 9.81227 0 9.38325 0C8.95423 0 8.54278 0.170428 8.23942 0.473791C7.93605 0.777155 7.76562 1.1886 7.76562 1.61762Z" fill="#2E3133"/>
</svg>
