<svg width="11" height="12" viewBox="0 0 11 12" fill="none" xmlns="http://www.w3.org/2000/svg">
<path d="M5.95892 1.14481C5.86976 1.46069 5.82468 1.78737 5.82497 2.11558C5.82497 4.08159 7.41864 5.67524 9.38465 5.67524C9.71281 5.67556 10.0396 5.63044 10.3554 5.5413V9.55849C10.3554 10.6309 9.48609 11.5 8.41387 11.5H1.94171C0.869329 11.5 0.000157773 10.6307 0 9.55849V3.08636C0 2.01398 0.869329 1.14465 1.94171 1.14465H5.95892V1.14481Z" fill="#00AEFF"/>
<path opacity="0.3" d="M7.76562 2.11796C7.76563 2.54706 7.93609 2.9586 8.23951 3.26202C8.54294 3.56545 8.95448 3.73591 9.38359 3.73591C9.8127 3.73591 10.2242 3.56545 10.5277 3.26202C10.8311 2.9586 11.0015 2.54706 11.0015 2.11796C11.0015 1.68885 10.8311 1.27731 10.5277 0.973888C10.2242 0.670463 9.8127 0.5 9.38359 0.5C8.95448 0.5 8.54294 0.670463 8.23951 0.973888C7.93609 1.27731 7.76562 1.68885 7.76562 2.11796Z" fill="#9CC2FE"/>
</svg>
