<svg width="22" height="20" viewBox="0 0 22 20" fill="none" xmlns="http://www.w3.org/2000/svg">
<path d="M3.54297 1.56299H14.792C15.9569 1.56299 16.9014 2.50744 16.9014 3.67236V16.3306C16.9012 17.4939 15.9583 18.4369 14.7949 18.437H3.54297C2.37805 18.437 1.43359 17.4926 1.43359 16.3276V3.67236C1.43359 2.50744 2.37805 1.56299 3.54297 1.56299Z" stroke="white" stroke-width="1.40618"/>
<path d="M12.2941 15.8876C11.9122 15.9843 11.5737 15.622 11.696 15.2476L12.624 12.4079L18.1078 7.28291C18.8661 6.57452 20.0555 6.61523 20.7641 7.37343C21.4725 8.13165 21.4323 9.32043 20.6743 10.0291L15.1905 15.1541L12.2941 15.8876Z" fill="white"/>
<path d="M18.5879 7.79663C19.0622 7.35365 19.8063 7.37891 20.25 7.85327C20.6933 8.32772 20.6686 9.07178 20.1943 9.51538L14.8428 14.5164L12.4785 15.115L13.2354 12.7986L18.5879 7.79663Z" stroke="white" stroke-opacity="0.7" stroke-width="1.40618"/>
<rect x="4.94922" y="5.07837" width="8.43709" height="1.40618" rx="0.703091" fill="white"/>
<rect x="4.94922" y="9.29688" width="8.43709" height="1.40618" rx="0.703091" fill="white"/>
<rect x="4.94922" y="13.5154" width="4.21854" height="1.40618" rx="0.703091" fill="white"/>
</svg>
