<svg width="16" height="16" viewBox="0 0 16 16" fill="none" xmlns="http://www.w3.org/2000/svg">
<path d="M7.99997 0C3.58168 0 0 3.58171 0 7.99997C0 12.4183 3.58168 16 7.99997 16C12.4183 16 16 12.4183 16 8C16 3.58175 12.4184 0 7.99997 0ZM8.77636 12.6163C8.77636 12.8372 8.59732 13.0163 8.37636 13.0163H7.17635C6.95549 13.0163 6.77639 12.8372 6.77639 12.6163V11.4163C6.77639 11.1953 6.95549 11.0163 7.17635 11.0163H8.37636C8.5973 11.0163 8.77636 11.1953 8.77636 11.4163V12.6163ZM10.7592 7.11032C10.5984 7.33958 10.2335 7.63168 9.77657 7.98784L9.27026 8.33724C9.02436 8.52798 8.80626 8.75005 8.72561 9.00429C8.69805 9.09092 8.6774 9.23329 8.6635 9.38704C8.65649 9.46441 8.58727 9.62226 8.42549 9.62226H7.12331C6.91166 9.62226 6.87385 9.45647 6.87738 9.37537C6.90081 8.84387 6.94952 8.37201 7.16607 8.11798C7.60451 7.60391 8.60213 6.96406 8.60213 6.96406C8.75401 6.84944 8.87698 6.72485 8.96998 6.58906C9.13904 6.35595 9.2793 6.09994 9.2793 5.82011C9.2793 5.49847 9.18527 5.20529 8.99658 4.93992C8.80855 4.6756 8.46411 4.54317 7.96501 4.54317C7.4737 4.54317 7.12541 4.70625 6.92012 5.03224C6.76846 5.2731 6.67298 5.49456 6.63343 5.73552C6.61937 5.8208 6.56468 6.00042 6.3824 6.00042H5.11237C4.84194 6.00042 4.78239 5.82517 4.79021 5.7407C4.8881 4.67605 5.30415 3.94864 6.03978 3.48156C6.54 3.15997 7.15541 2.9986 7.88541 2.9986C8.84464 2.9986 9.64089 3.22725 10.2757 3.68522C10.9094 4.14257 11.2271 4.82025 11.2271 5.71881C11.2272 6.26908 11.034 6.73311 10.7592 7.11032H10.7592Z" fill="black" fill-opacity="0.1"/>
</svg>
