<svg width="327" height="146" viewBox="0 0 327 146" fill="none" xmlns="http://www.w3.org/2000/svg">
<mask id="mask0_4445_44643" style="mask-type:alpha" maskUnits="userSpaceOnUse" x="0" y="0" width="327" height="146">
<path d="M149.676 0C160.207 1.59952e-06 168.743 6.63619 168.743 14.8223C168.743 17.2782 170.661 19.269 173.117 19.269C193.463 19.269 279.444 19.269 317.05 19.269C322.573 19.269 327 23.7462 327 29.269V140.071C327 143.346 323.585 146 319.373 146H7.62682C3.41464 146 3.07111e-08 143.346 0 140.071C0 95.357 0 50.643 0 5.92893C0 2.65447 3.41464 5.96836e-09 7.62682 0H149.676Z" fill="#1CA4FF" fill-opacity="0.63"/>
</mask>
<g mask="url(#mask0_4445_44643)">
<rect width="327" height="146" rx="10" fill="url(#paint0_radial_4445_44643)" fill-opacity="0.15"/>
<g opacity="0.5">
<path d="M304.716 115.262C304.428 113.453 305.662 111.754 307.471 111.466C309.279 111.179 310.979 112.412 311.266 114.221L312.429 121.538C312.716 123.347 311.483 125.046 309.674 125.334C307.865 125.621 306.166 124.388 305.878 122.579L304.716 115.262Z" fill="white"/>
<path d="M277.747 121.612C277.46 119.803 278.693 118.103 280.502 117.816C282.311 117.529 284.01 118.762 284.297 120.571L285.481 128.016C285.768 129.825 284.535 131.524 282.726 131.811C280.917 132.099 279.218 130.866 278.93 129.057L277.747 121.612Z" fill="white"/>
</g>
</g>
<defs>
<radialGradient id="paint0_radial_4445_44643" cx="0" cy="0" r="1" gradientTransform="matrix(605.788 -126.322 3078.28 2171.31 -31.0859 159.965)" gradientUnits="userSpaceOnUse">
<stop stop-color="#EEEEEE"/>
<stop offset="1" stop-color="#00AEFF"/>
</radialGradient>
</defs>
</svg>
