<svg width="16" height="16" viewBox="0 0 16 16" fill="none" xmlns="http://www.w3.org/2000/svg">
<g clip-path="url(#clip0_32_2240)">
<path d="M7.45792 0.143991C7.62218 0.0495688 7.80833 -0.00012207 7.9978 -0.00012207C8.18727 -0.00012207 8.37342 0.0495688 8.53768 0.143991L14.5737 3.61435C14.6963 3.68456 14.8021 3.77609 14.8848 3.88451C15.0083 3.98227 15.0794 4.12891 15.0785 4.28443C15.0963 4.36352 15.1069 4.44439 15.1078 4.52615V11.4713C15.1078 11.8472 14.9043 12.1938 14.5764 12.3813L8.5359 15.8526C8.37191 15.9469 8.18606 15.9965 7.99691 15.9965C7.80775 15.9965 7.62191 15.9469 7.45792 15.8526L1.42189 12.3822C1.09307 12.1956 0.889561 11.8472 0.888672 11.4704V4.52526C0.888672 4.14846 1.09307 3.80098 1.41922 3.61524L7.45792 0.143991ZM7.99824 8.57239L2.32481 11.745L7.66587 14.8173V11.8579C7.65519 11.7899 7.6586 11.7204 7.67587 11.6537C7.69314 11.5871 7.72392 11.5247 7.76628 11.4704C7.80865 11.4161 7.86171 11.3711 7.92218 11.3382C7.98265 11.3052 8.04923 11.2851 8.11781 11.2789C8.18639 11.2728 8.25551 11.2807 8.32087 11.3024C8.38624 11.324 8.44647 11.3589 8.49783 11.4047C8.54918 11.4506 8.59058 11.5065 8.61945 11.569C8.64832 11.6315 8.66404 11.6993 8.66565 11.7681L8.67454 11.8588V14.6191L13.6548 11.7548L7.99824 8.5715V8.57239ZM8.50213 1.27797V7.7068L14.1018 10.8563V5.12869L11.5201 6.60837C11.4115 6.66883 11.2843 6.68713 11.163 6.65975C11.0417 6.63237 10.9347 6.56124 10.8625 6.45996C10.791 6.35913 10.7596 6.23531 10.7744 6.11259C10.7892 5.98988 10.8491 5.87707 10.9425 5.7961L11.0163 5.74367L13.6468 4.23555L8.50125 1.27797H8.50213ZM7.49524 1.27797L2.37635 4.21955L4.91624 5.69301C5.02501 5.7551 5.10638 5.85591 5.1441 5.97533C5.18182 6.09476 5.17313 6.22402 5.11976 6.33732C5.06583 6.45094 4.97144 6.54033 4.85506 6.588C4.73868 6.63567 4.60869 6.63818 4.49056 6.59504L4.40791 6.55682L1.8929 5.09758V10.8377L7.49435 7.70591V1.27886L7.49524 1.27797Z" fill="white"/>
</g>
<defs>
<clipPath id="clip0_32_2240">
<rect width="16" height="16" fill="white"/>
</clipPath>
</defs>
</svg>
