<svg width="20" height="20" viewBox="0 0 20 20" fill="none" xmlns="http://www.w3.org/2000/svg">
<g clip-path="url(#clip0_32_2250)">
<path d="M6.96053 3.60291C7.09138 3.60297 7.21729 3.65288 7.31266 3.74246C7.40804 3.83205 7.4657 3.9546 7.47395 4.08519C7.48219 4.21578 7.44038 4.34461 7.35703 4.44548C7.27368 4.54635 7.15504 4.61168 7.02524 4.6282L6.96053 4.63232H4.21583C4.17714 4.63234 4.1396 4.64543 4.10928 4.66945C4.07897 4.69347 4.05764 4.72702 4.04877 4.76467L4.04406 4.80408V7.54879C4.04399 7.67964 3.99409 7.80555 3.9045 7.90092C3.81491 7.99629 3.69236 8.05396 3.56177 8.0622C3.43118 8.07045 3.30236 8.02864 3.20149 7.94529C3.10062 7.86194 3.03528 7.7433 3.01877 7.61349L3.01465 7.54879V4.80408C3.01465 4.17055 3.50465 3.65232 4.12641 3.60643L4.21583 3.60291H6.96053ZM3.52935 12.5247C3.79171 12.5247 4.00818 12.7206 4.03994 12.9747L4.04406 13.0394V15.7841C4.04406 15.8653 4.10053 15.9335 4.17641 15.9511L4.21583 15.9558H6.96053C7.09138 15.9559 7.21729 16.0058 7.31266 16.0954C7.40804 16.185 7.4657 16.3075 7.47395 16.4381C7.48219 16.5687 7.44038 16.6976 7.35703 16.7984C7.27368 16.8993 7.15504 16.9646 7.02524 16.9811L6.96053 16.9853H4.21583C3.91276 16.9852 3.62092 16.8706 3.39881 16.6644C3.1767 16.4582 3.04074 16.1757 3.01818 15.8735L3.01465 15.7841V13.0394C3.01465 12.7547 3.24524 12.5247 3.52935 12.5247ZM15.8823 12.5247C16.1446 12.5247 16.3611 12.7206 16.3929 12.9747L16.397 13.0394V15.7841C16.397 16.0871 16.2823 16.379 16.0762 16.6011C15.87 16.8232 15.5875 16.9592 15.2852 16.9817L15.1958 16.9853H12.4511C12.3203 16.9852 12.1944 16.9353 12.099 16.8457C12.0036 16.7561 11.9459 16.6336 11.9377 16.503C11.9295 16.3724 11.9713 16.2436 12.0546 16.1427C12.138 16.0418 12.2566 15.9765 12.3864 15.96L12.4511 15.9558H15.1958C15.2345 15.9558 15.272 15.9427 15.3024 15.9187C15.3327 15.8947 15.354 15.8611 15.3629 15.8235L15.3676 15.7841V13.0394C15.3676 12.7547 15.5982 12.5247 15.8823 12.5247ZM15.1958 3.60291C15.8294 3.60291 16.3476 4.09291 16.3935 4.71467L16.397 4.80408V7.54879C16.3969 7.67964 16.347 7.80555 16.2574 7.90092C16.1679 7.99629 16.0453 8.05396 15.9147 8.0622C15.7841 8.07045 15.6553 8.02864 15.5544 7.94529C15.4536 7.86194 15.3882 7.7433 15.3717 7.61349L15.3676 7.54879V4.80408C15.3676 4.7654 15.3545 4.72786 15.3305 4.69754C15.3064 4.66722 15.2729 4.6459 15.2352 4.63702L15.1958 4.63232H12.4511C12.3203 4.63225 12.1944 4.58235 12.099 4.49276C12.0036 4.40317 11.9459 4.28062 11.9377 4.15003C11.9295 4.01944 11.9713 3.89061 12.0546 3.78974C12.138 3.68888 12.2566 3.62354 12.3864 3.60702L12.4511 3.60291H15.1958ZM12.4511 6.3482H6.96053C6.64216 6.34836 6.33688 6.4749 6.11176 6.70002C5.88664 6.92514 5.7601 7.23042 5.75994 7.54879V13.0394C5.75994 13.7023 6.29759 14.24 6.96053 14.24H12.4511C12.7695 14.2398 13.0748 14.1133 13.2999 13.8881C13.525 13.663 13.6516 13.3577 13.6517 13.0394V7.54879C13.6516 7.23042 13.525 6.92514 13.2999 6.70002C13.0748 6.4749 12.7695 6.34836 12.4511 6.3482ZM6.96053 7.37761H12.4511C12.5452 7.37761 12.6223 7.45408 12.6223 7.54879V13.0394C12.6223 13.1335 12.5458 13.2106 12.4511 13.2106H6.96053C6.91518 13.2104 6.87173 13.1923 6.83966 13.1602C6.80759 13.1282 6.78951 13.0847 6.78935 13.0394V7.54879C6.78935 7.45467 6.86582 7.37761 6.96053 7.37761Z" fill="white"/>
</g>
<defs>
<clipPath id="clip0_32_2250">
<rect width="20" height="20" fill="white"/>
</clipPath>
</defs>
</svg>
