<svg width="8" height="16" viewBox="0 0 8 16" fill="none" xmlns="http://www.w3.org/2000/svg">
<path fill-rule="evenodd" clip-rule="evenodd" d="M1.18378 1.59932C0.962485 1.82062 0.962485 2.17941 1.18378 2.40071L6.42954 7.64646C6.56815 7.78508 6.64771 7.86526 6.70143 7.92854C6.7234 7.95442 6.73432 7.96992 6.73901 7.97712C6.74255 7.99218 6.74255 8.00786 6.73901 8.02292C6.73432 8.03011 6.7234 8.04561 6.70143 8.07149C6.64771 8.13478 6.56815 8.21495 6.42953 8.35357L1.18378 13.5993C0.962485 13.8206 0.962485 14.1794 1.18378 14.4007C1.40508 14.622 1.76387 14.622 1.98517 14.4007L7.24442 9.14146C7.3648 9.0211 7.47803 8.90789 7.56542 8.80496C7.66036 8.69312 7.75758 8.55673 7.81464 8.38114C7.89512 8.13343 7.89512 7.8666 7.81464 7.6189C7.75758 7.44331 7.66036 7.30691 7.56542 7.19508C7.47803 7.09214 7.36479 6.97892 7.24441 6.85856L1.98517 1.59932C1.76387 1.37803 1.40508 1.37803 1.18378 1.59932Z" fill="black" fill-opacity="0.9"/>
</svg>
