<svg width="16" height="16" viewBox="0 0 16 16" fill="none" xmlns="http://www.w3.org/2000/svg">
<path d="M10.1938 2.44676C10.3539 2.26403 10.5503 2.11649 10.7703 2.01346C10.9904 1.91044 11.2295 1.85416 11.4724 1.84819C11.7153 1.84221 11.9568 1.88667 12.1817 1.97875C12.4066 2.07084 12.6099 2.20854 12.7789 2.38318C12.9479 2.55782 13.0788 2.76559 13.1634 2.99338C13.248 3.22117 13.2845 3.46404 13.2705 3.70663C13.2565 3.94923 13.1924 4.18629 13.0822 4.40285C12.9719 4.61941 12.818 4.81076 12.6301 4.96483L11.4277 6.16717L8.94219 3.68074L10.185 2.43797L10.1938 2.44676ZM5.21299 12.381V12.3828H2.72656V9.89549L8.3208 4.30213L10.8063 6.78856L5.21299 12.381ZM0.96875 13.2731H15.0312V15.0309H0.96875V13.2731Z" fill="#00AEFF"/>
</svg>
