<svg width="16" height="11" viewBox="0 0 16 11" fill="none" xmlns="http://www.w3.org/2000/svg">
<path d="M6.104 2.61694L8.98824 5.50116L6.104 8.38541L6.75219 9.03361L9.79848 5.98732C10.067 5.71883 10.067 5.28352 9.79848 5.01503L6.75219 1.96875L6.104 2.61694Z" fill="#3B74FF" fill-opacity="0.8"/>
<path d="M10.1758 2.61694L13.06 5.50116L10.1758 8.38541L10.824 9.03361L13.8703 5.98732C14.1387 5.71883 14.1387 5.28352 13.8703 5.01503L10.824 1.96875L10.1758 2.61694Z" fill="#3B74FF"/>
<path d="M2.24072 2.61694L5.12496 5.50116L2.24072 8.38541L2.88891 9.03361L5.9352 5.98732C6.20367 5.71883 6.20367 5.28352 5.9352 5.01503L2.88891 1.96875L2.24072 2.61694Z" fill="#3B74FF" fill-opacity="0.5"/>
</svg>
