<svg width="32" height="32" viewBox="0 0 32 32" fill="none" xmlns="http://www.w3.org/2000/svg">
<path d="M15.4483 1.87641C15.5892 1.79492 15.7487 1.75137 15.9114 1.75003C16.0741 1.74869 16.2344 1.7896 16.3765 1.86875L16.39 1.87641L27.8717 8.50141H27.87C28.0111 8.58307 28.1286 8.69981 28.2113 8.84031C28.2939 8.9808 28.3388 9.14028 28.3417 9.30325V22.5698C28.3414 22.7327 28.2991 22.8929 28.2187 23.0347C28.1383 23.1765 28.0226 23.295 27.8828 23.3789L27.87 23.3864L16.3917 30.0148C16.2502 30.0942 16.0909 30.1365 15.9287 30.1379C15.7664 30.1392 15.6065 30.0994 15.4638 30.0223L15.45 30.0148L3.97 23.3864C3.82911 23.3047 3.71178 23.1878 3.62942 23.0473C3.54706 22.9068 3.50247 22.7473 3.5 22.5844V9.31813C3.50003 9.15529 3.54214 8.99522 3.62225 8.85346C3.70237 8.71169 3.81777 8.59303 3.95725 8.509L3.97 8.50144L15.4483 1.87644V1.87641ZM15.9193 3.91385L5.5 9.92757V21.9604L15.9208 27.9771L26.3417 21.9594V9.92772L26.2982 9.90257L15.9193 3.91385Z" fill="#353E53"/>
<path d="M8.04745 11.67L8.04254 11.6675L8.01317 11.7186C7.94723 11.8331 7.90449 11.9594 7.88738 12.0904C7.87027 12.2214 7.87913 12.3545 7.91345 12.482L7.91764 12.4971C7.98947 12.7484 8.1563 12.9619 8.38279 13.0923L14.9048 16.8575V24.3048C14.9048 24.861 15.3528 25.309 15.909 25.309C16.0409 25.3092 16.1716 25.2834 16.2935 25.233C16.4154 25.1826 16.5262 25.1086 16.6195 25.0153L16.6307 25.004C16.8123 24.8165 16.9136 24.5656 16.9131 24.3047V16.8692L23.4602 13.0873C23.9203 12.7986 24.069 12.2003 23.7989 11.7317L23.7907 11.7178C23.5169 11.2598 22.9317 11.0946 22.4581 11.3445L15.9206 15.1209L9.38689 11.3473C8.92414 11.0848 8.34176 11.2279 8.05126 11.6642L8.04745 11.67Z" fill="#353E53"/>
</svg>
