<svg width="32" height="32" viewBox="0 0 32 32" fill="none" xmlns="http://www.w3.org/2000/svg">
<path d="M6.45574 27.7178C5.80467 27.717 5.18047 27.4581 4.72009 26.9977C4.25971 26.5373 4.00074 25.9131 4 25.262V6.45574C4.00074 5.80467 4.25971 5.18047 4.72009 4.72009C5.18047 4.25971 5.80467 4.00074 6.45574 4H25.2213C25.8724 4.00074 26.4966 4.25971 26.957 4.72009C27.4174 5.18047 27.6763 5.80467 27.6771 6.45574V17.6393C27.6767 17.8803 27.5807 18.1114 27.4101 18.2817C27.2395 18.452 27.0083 18.5477 26.7672 18.5477C26.6476 18.5481 26.5291 18.5249 26.4185 18.4794C26.3079 18.4339 26.2073 18.3671 26.1225 18.2827C26.0378 18.1983 25.9705 18.0981 25.9245 17.9877C25.8785 17.8773 25.8547 17.7589 25.8546 17.6393V6.45574C25.8538 6.28828 25.7868 6.12794 25.6681 6.00979C25.5494 5.89164 25.3888 5.82531 25.2213 5.82531H6.45574C6.37277 5.82512 6.29057 5.84128 6.21384 5.87287C6.13711 5.90445 6.06736 5.95083 6.00855 6.00938C5.94975 6.06792 5.90306 6.13747 5.87113 6.21405C5.83921 6.29064 5.82268 6.37277 5.8225 6.45574V25.262C5.82287 25.4299 5.88971 25.5907 6.00838 25.7094C6.12706 25.8281 6.28791 25.8949 6.45574 25.8953H17.7193C17.8389 25.8949 17.9574 25.9181 18.068 25.9636C18.1786 26.0091 18.2792 26.0759 18.364 26.1603C18.4487 26.2446 18.516 26.3449 18.562 26.4553C18.608 26.5657 18.6318 26.6841 18.632 26.8037C18.6321 26.9236 18.6087 27.0424 18.5629 27.1532C18.5171 27.264 18.4498 27.3647 18.3651 27.4495C18.2803 27.5343 18.1796 27.6015 18.0688 27.6473C17.958 27.6931 17.8392 27.7166 17.7193 27.7164L6.45574 27.7178ZM21.5202 27.5774C21.3104 27.6071 21.0966 27.5877 20.8956 27.5206C20.6947 27.4535 20.5121 27.3406 20.3623 27.1908C20.2125 27.041 20.0995 26.8584 20.0324 26.6574C19.9654 26.4564 19.9459 26.2426 19.9757 26.0329V21.3994C19.9453 21.1895 19.9643 20.9755 20.0312 20.7742C20.0981 20.573 20.211 20.3901 20.3609 20.2402C20.5109 20.0902 20.6937 19.9773 20.895 19.9105C21.0962 19.8436 21.3103 19.8246 21.5202 19.8549H26.1536C26.3636 19.8242 26.5778 19.8431 26.7791 19.9098C26.9805 19.9766 27.1635 20.0895 27.3135 20.2395C27.4635 20.3895 27.5764 20.5725 27.6432 20.7739C27.71 20.9753 27.7288 21.1895 27.6981 21.3994V26.0329C27.7285 26.2428 27.7095 26.4568 27.6426 26.658C27.5757 26.8593 27.4628 27.0421 27.3128 27.1921C27.1629 27.342 26.98 27.4549 26.7788 27.5218C26.5776 27.5887 26.3635 27.6077 26.1536 27.5774H21.5202Z" fill="#353E53"/>
</svg>
