<svg width="32" height="32" viewBox="0 0 32 32" fill="none" xmlns="http://www.w3.org/2000/svg">
<path d="M27.3107 15.3875C27.0414 19.6782 24.3847 23.3208 20.6541 25.0035C20.5652 26.2076 20.0131 27.3303 19.1139 28.1359C18.2146 28.9415 17.0381 29.3672 15.8316 29.3236C14.6251 29.28 13.4824 28.7705 12.6436 27.9022C11.8048 27.0338 11.3352 25.8742 11.3334 24.6668C11.3328 23.6187 11.6851 22.6008 12.3335 21.7772C12.982 20.9537 13.8888 20.3724 14.9079 20.1271C15.927 19.8818 16.999 19.9867 17.9511 20.4249C18.9033 20.8632 19.6803 21.6092 20.1567 22.5428C21.3897 21.8919 22.4527 20.9607 23.2602 19.8242C24.0677 18.6876 24.5972 17.3773 24.8061 15.9988C25.6755 15.9798 26.5303 15.7712 27.3107 15.3875ZM16.0001 22.0002C15.522 22.0003 15.0527 22.1289 14.6414 22.3725C14.23 22.6162 13.8918 22.966 13.662 23.3852C13.4323 23.8045 13.3194 24.2778 13.3353 24.7556C13.3512 25.2334 13.4953 25.6982 13.7525 26.1012C14.0096 26.5043 14.3704 26.8307 14.7971 27.0465C15.2237 27.2623 15.7005 27.3594 16.1775 27.3276C16.6545 27.2959 17.1143 27.1365 17.5086 26.8661C17.9029 26.5958 18.2172 26.2244 18.4187 25.7908L18.4434 25.7362L18.4967 25.6075C18.5397 25.4932 18.5746 25.376 18.6014 25.2568L18.5914 25.2995C18.6014 25.2568 18.6114 25.2142 18.6187 25.1708L18.6014 25.2568C18.6132 25.2049 18.6234 25.1527 18.6321 25.1002L18.6187 25.1708C18.6281 25.1235 18.6361 25.0748 18.6427 25.0262L18.6321 25.0995C18.6387 25.0535 18.6454 25.0068 18.6507 24.9595L18.6427 25.0262C18.6587 24.9088 18.6667 24.7888 18.6667 24.6668L18.6621 24.5068C18.659 24.4534 18.6543 24.4 18.6481 24.3468L18.6594 24.4642C18.6555 24.4138 18.6502 24.3636 18.6434 24.3135L18.6481 24.3468C18.633 24.2224 18.6092 24.0992 18.5767 23.9782L18.5874 24.0182C18.575 23.9689 18.5612 23.92 18.5461 23.8715L18.5767 23.9782C18.5639 23.9296 18.5497 23.8813 18.5341 23.8335L18.5461 23.8708C18.5308 23.8222 18.5141 23.7739 18.4961 23.7262L18.5341 23.8335C18.5176 23.7832 18.4996 23.7334 18.4801 23.6842L18.4961 23.7262C18.4513 23.6076 18.398 23.4924 18.3367 23.3815L18.3594 23.4235C18.3374 23.3816 18.3143 23.3402 18.2901 23.2995L18.3367 23.3815C18.1066 22.9631 17.7684 22.6142 17.3574 22.3712C16.9463 22.1282 16.4776 22.0001 16.0001 22.0002ZM7.3334 5.33351C7.9561 5.33379 8.57245 5.4587 9.14614 5.70086C9.71982 5.94303 10.2392 6.29756 10.6738 6.74358C11.1083 7.18959 11.4492 7.71806 11.6764 8.29786C11.9035 8.87765 12.0124 9.49705 11.9964 10.1195C11.9805 10.742 11.8401 11.3551 11.5836 11.9225C11.3271 12.4899 10.9597 13.0003 10.5029 13.4235C10.0461 13.8467 9.50921 14.1742 8.92389 14.3867C8.33857 14.5992 7.71663 14.6924 7.09473 14.6608V14.6668C7.09473 17.6042 8.5174 20.2095 10.7114 21.8315C10.3051 22.5917 10.0665 23.43 10.0114 24.2902C6.80206 22.2888 4.66673 18.7268 4.66673 14.6668C4.66673 14.3922 4.67673 14.1202 4.6954 13.8502C3.87319 13.287 3.25288 12.4753 2.9253 11.5341C2.59773 10.5928 2.58008 9.57142 2.87496 8.61942C3.16984 7.66742 3.76174 6.83483 4.56401 6.24355C5.36628 5.65227 6.33678 5.33336 7.3334 5.33351ZM16.0001 3.33351C18.5981 3.33351 20.9921 4.20751 22.9034 5.67818C23.9467 5.25224 25.109 5.21823 26.1754 5.58243C27.2419 5.94663 28.1405 6.68443 28.7054 7.65958C29.2702 8.63472 29.4631 9.78133 29.2485 10.8876C29.0338 11.9939 28.426 12.9852 27.5375 13.6783C26.6489 14.3714 25.5395 14.7196 24.4143 14.6585C23.289 14.5974 22.2238 14.1312 21.4155 13.3459C20.6072 12.5607 20.1104 11.5095 20.0167 10.3865C19.9231 9.26343 20.239 8.14444 20.9061 7.23618C19.4518 6.27195 17.7449 5.75913 16.0001 5.76218C14.6654 5.76218 13.4001 6.05551 12.2634 6.58218C11.768 5.86732 11.1234 5.26844 10.3741 4.82684C12.0864 3.84533 14.0264 3.33039 16.0001 3.33351ZM7.2854 12.6655L7.30206 12.6668L7.29206 12.6655H7.2854ZM7.2274 12.6642L7.25073 12.6655H7.2854L7.2274 12.6642ZM7.1954 12.6628L7.2194 12.6642H7.2274L7.1954 12.6628ZM7.09073 12.6555L7.10473 12.6568H7.0994L7.09073 12.6555ZM6.2234 12.4255L6.24273 12.4342L6.2254 12.4262L6.2234 12.4255ZM6.17406 12.4022L6.21673 12.4222L6.2094 12.4188L6.17406 12.4022ZM5.71806 12.1222L5.78273 12.1695L5.80406 12.1855L5.7474 12.1442L5.71806 12.1222ZM5.69806 12.1062L5.7074 12.1135L5.70606 12.1128L5.69806 12.1062ZM22.5054 8.43751L22.4847 8.46684L22.5007 8.44484L22.5054 8.43751ZM23.2334 7.75084L23.1961 7.77551L23.2147 7.76284L23.2334 7.75084ZM24.0947 7.39484L24.0761 7.39884L24.0867 7.39684L24.0947 7.39484ZM24.1674 7.38018L24.1561 7.38218L24.1681 7.38018H24.1674ZM24.1774 7.37818L24.1754 7.37884H24.1761L24.1774 7.37818ZM24.3854 7.34818L24.3127 7.35684L24.2494 7.36551L24.3167 7.35618L24.3854 7.34818ZM7.15806 12.6608H7.15673L7.13806 12.6595L7.15806 12.6608ZM7.04406 12.6508L7.04006 12.6502L7.0614 12.6522L7.04406 12.6508ZM6.32473 12.4688L6.31673 12.4655L6.28473 12.4522L6.35006 12.4788L6.32473 12.4688ZM5.93073 12.2682L5.94073 12.2748L5.95806 12.2848L5.93073 12.2682ZM5.8374 12.2075L5.83673 12.2068L5.80406 12.1855L5.8374 12.2075ZM23.5061 7.59751L23.5167 7.59284L23.5221 7.59084L23.5061 7.59751ZM23.9967 7.41818L24.0034 7.41618L24.0087 7.41484L23.9967 7.41818ZM24.1727 7.37951L24.1754 7.37884L24.1714 7.37951H24.1727ZM24.0034 7.41618L23.9974 7.41818L24.0494 7.40484C24.0019 7.41621 23.9548 7.42888 23.9081 7.44284L23.9654 7.42684L23.8954 7.44684L23.8434 7.46284L23.7801 7.48484C23.6923 7.51562 23.6061 7.551 23.5221 7.59084L23.5434 7.58084L23.5167 7.59284L23.5041 7.59884L23.5001 7.60084L23.4901 7.60684L23.4667 7.61818L23.4181 7.64351L23.4154 7.64418L23.3547 7.67751L23.4114 7.64684L23.3547 7.67818L23.3201 7.69751L23.2934 7.71351L23.2987 7.71084L23.2927 7.71418L23.2327 7.75151L23.2147 7.76284L23.1854 7.78284L23.1687 7.79351L23.1147 7.83151L23.0734 7.86151L23.0614 7.87084C22.9767 7.93484 22.8961 8.00351 22.8194 8.07684L22.7987 8.09684L22.7721 8.12351L22.7374 8.15884L22.7267 8.17084L22.7141 8.18351L22.6827 8.21818L22.6587 8.24484L22.6541 8.25018L22.6407 8.26618L22.5981 8.31751L22.5741 8.34618L22.5567 8.36951L22.5547 8.37218L22.5127 8.42751L22.5007 8.44484L22.4241 8.55684C22.1034 9.05508 21.9577 9.64593 22.0102 10.2361C22.0626 10.8263 22.3101 11.3823 22.7136 11.8162C23.1171 12.2501 23.6536 12.5372 24.2385 12.6323C24.8233 12.7274 25.4232 12.6249 25.9433 12.3412C26.4635 12.0575 26.8744 11.6086 27.1111 11.0654C27.3477 10.5222 27.3968 9.91559 27.2504 9.34143C27.104 8.76727 26.7706 8.25821 26.3027 7.89461C25.8349 7.53101 25.2593 7.33359 24.6667 7.33351L24.6421 7.33418L24.6401 7.33351L24.5174 7.33751L24.4821 7.33951C24.4266 7.34334 24.3712 7.3489 24.3161 7.35618L24.2494 7.36551L24.2001 7.37418L24.2401 7.36751L24.1994 7.37418L24.1841 7.37684L24.1754 7.37884L24.1721 7.37951L24.1687 7.38018H24.1674L24.1174 7.39018L24.1467 7.38418L24.1161 7.39084L24.0861 7.39684L24.0487 7.40551L24.0754 7.39884L24.0421 7.40618L24.0287 7.41018L24.0141 7.41351L24.0081 7.41484H24.0087L24.0027 7.41618H24.0034ZM7.18673 12.6622L7.29206 12.6655L7.3334 12.6668C7.92947 12.6668 8.50835 12.4671 8.97761 12.0996C9.44688 11.732 9.77948 11.2178 9.9223 10.6391C10.0651 10.0604 10.0099 9.45054 9.76555 8.90687C9.52117 8.3632 9.10168 7.91708 8.57406 7.63974C8.04644 7.3624 7.44111 7.26983 6.85472 7.37681C6.26833 7.48379 5.73468 7.78415 5.33898 8.22993C4.94329 8.67572 4.70835 9.24122 4.67169 9.83617C4.63503 10.4311 4.79876 11.0212 5.13673 11.5122L5.22873 11.6388C5.2554 11.6722 5.28206 11.7055 5.31006 11.7375L5.31206 11.7395L5.35873 11.7928L5.3214 11.7495L5.38073 11.8162C5.40406 11.8415 5.42873 11.8668 5.45406 11.8915L5.46073 11.8988L5.47606 11.9135L5.4934 11.9302L5.53473 11.9688L5.55006 11.9828L5.5674 11.9982L5.55073 11.9828L5.5914 12.0188L5.6034 12.0295L5.63473 12.0555L5.6494 12.0675L5.69806 12.1062L5.67873 12.0915L5.69806 12.1068L5.70606 12.1128L5.71806 12.1222L5.7074 12.1135L5.7474 12.1442L5.83673 12.2068L5.8374 12.2075L5.8394 12.2088L5.86273 12.2248L5.91273 12.2568L5.93073 12.2682L5.88206 12.2368L5.96806 12.2908L6.02073 12.3215L6.06406 12.3462L6.08873 12.3588L6.12006 12.3755L6.17473 12.4022L6.2094 12.4188L6.21673 12.4222L6.2254 12.4262L6.2854 12.4528L6.30873 12.4628L6.31673 12.4655L6.32473 12.4688L6.34873 12.4788L6.41273 12.5035L6.3754 12.4895C6.4734 12.5275 6.57406 12.5595 6.6774 12.5855L6.83406 12.6202C6.88073 12.6288 6.9274 12.6368 6.97406 12.6428L6.95406 12.6402L7.0194 12.6482L7.03606 12.6502H7.03873L7.04406 12.6508L7.0554 12.6528L7.09073 12.6555L7.05873 12.6522L7.0994 12.6568L7.11273 12.6575L7.15673 12.6608H7.15806L7.17873 12.6622L7.1954 12.6628L7.18673 12.6622Z" fill="#353E53"/>
</svg>
