<svg width="32" height="32" viewBox="0 0 32 32" fill="none" xmlns="http://www.w3.org/2000/svg">
<path d="M10.1933 5.36113C9.64502 5.65295 9.49109 6.34856 9.81064 6.88116C10.1532 7.45213 10.9029 7.61141 11.4985 7.31363C12.7531 6.68631 14.1688 6.33333 15.6669 6.33333C20.4273 6.33333 24.3553 9.89715 24.9284 14.5023C25.0079 15.1417 25.5226 15.6667 26.167 15.6667C26.8113 15.6667 27.3397 15.1428 27.2762 14.5016C26.6916 8.6053 21.7171 4 15.6669 4C13.6888 4 11.8256 4.49233 10.1933 5.36113Z" fill="#353E53"/>
<path d="M5.1667 15.667C5.81102 15.667 6.32569 16.192 6.40526 16.8314C6.97836 21.4365 10.9063 25.0003 15.6667 25.0003C17.1648 25.0003 18.5805 24.6473 19.8352 24.02C20.4307 23.7222 21.1804 23.8815 21.523 24.4525C21.8425 24.9851 21.6886 25.6807 21.1403 25.9725C19.508 26.8413 17.6448 27.3337 15.6667 27.3337C9.61655 27.3337 4.64209 22.7283 4.05745 16.8321C3.99388 16.1909 4.52236 15.667 5.1667 15.667Z" fill="#353E53"/>
<path d="M10.4699 13.7834L6.59676 7.32812C4.97285 9.33263 4 11.8862 4 14.6669H9.96972C10.4231 14.6669 10.7032 14.1722 10.4699 13.7834Z" fill="#353E53"/>
<path d="M27.3332 16.667C27.3332 19.4477 26.3604 22.0012 24.7365 24.0057L20.8633 17.5505C20.63 17.1617 20.9101 16.667 21.3635 16.667H27.3332Z" fill="#353E53"/>
</svg>
