<svg width="30" height="30" viewBox="0 0 30 30" fill="none" xmlns="http://www.w3.org/2000/svg">
<path d="M25.8806 8.92031L25.5713 9.62685C25.5236 9.74243 25.4427 9.84125 25.3387 9.91078C25.2348 9.98031 25.1126 10.0174 24.9876 10.0174C24.8625 10.0174 24.7403 9.98031 24.6364 9.91078C24.5324 9.84125 24.4515 9.74243 24.4038 9.62685L24.0964 8.92031C23.5557 7.66956 22.5661 6.66665 21.3227 6.10916L20.3745 5.68561C20.2598 5.63232 20.1628 5.54738 20.0948 5.4408C20.0268 5.33422 19.9907 5.21044 19.9907 5.08403C19.9907 4.95761 20.0268 4.83383 20.0948 4.72725C20.1628 4.62067 20.2598 4.53574 20.3745 4.48244L21.2703 4.08326C22.5455 3.51121 23.5525 2.47138 24.0833 1.1784L24.4 0.413763C24.4472 0.296598 24.5284 0.196226 24.6331 0.125542C24.7378 0.0548579 24.8612 0.0170898 24.9876 0.0170898C25.1139 0.0170898 25.2373 0.0548579 25.342 0.125542C25.4467 0.196226 25.5279 0.296598 25.5751 0.413763L25.8937 1.1784C26.424 2.47104 27.4303 3.51082 28.7048 4.08326L29.6007 4.48244C29.7153 4.53574 29.8123 4.62067 29.8803 4.72725C29.9483 4.83383 29.9844 4.95761 29.9844 5.08403C29.9844 5.21044 29.9483 5.33422 29.8803 5.4408C29.8123 5.54738 29.7153 5.63232 29.6007 5.68561L28.6505 6.10729C27.4074 6.66546 26.4184 7.66909 25.8787 8.92031H25.8806ZM11.2438 2.51276C13.6712 2.51279 16.0157 3.39589 17.8399 4.99732C19.6641 6.59876 20.8434 8.80914 21.1578 11.2161L23.969 15.6371C24.1545 15.9276 24.117 16.3624 23.6879 16.546L21.2403 17.5955V21.2538C21.2403 22.635 20.1214 23.7538 18.7402 23.7538H16.2439L16.2421 27.502H4.99744V22.8861C4.99744 21.4112 4.45207 20.015 3.44193 18.7575C2.26459 17.2876 1.52649 15.515 1.31267 13.6439C1.09886 11.7729 1.41805 9.87943 2.23344 8.18185C3.04884 6.48427 4.32726 5.05161 5.92141 4.04894C7.51556 3.04627 9.36057 2.51441 11.2438 2.51463V2.51276ZM11.2438 5.01281C9.83158 5.01299 8.44811 5.41208 7.25276 6.16413C6.05742 6.91618 5.09882 7.99059 4.48738 9.2636C3.87594 10.5366 3.63653 11.9565 3.79673 13.3596C3.95693 14.7627 4.51022 16.092 5.39287 17.1945C6.75909 18.898 7.49562 20.8359 7.49562 22.8861V25.0039H13.7439V21.2557H18.7402V15.9445L20.6762 15.1161L18.7496 12.0857L18.6784 11.5328C18.4414 9.72892 17.5565 8.07276 16.1886 6.87315C14.8207 5.67353 13.0632 5.01232 11.2438 5.01281ZM24.3494 21.2463L26.4297 22.6331C27.9375 20.3762 28.7399 17.7217 28.7348 15.0074C28.7348 14.1547 28.6599 13.3207 28.5099 12.5092L26.0811 13.1333C26.1842 13.7424 26.2366 14.3702 26.2366 15.0074C26.2366 17.3144 25.5432 19.4603 24.3494 21.2463Z" fill="#353E53"/>
</svg>
