<svg width="16" height="16" viewBox="0 0 16 16" fill="none" xmlns="http://www.w3.org/2000/svg">
<path d="M11.5283 2.10254C12.2872 2.26643 14.1425 5.28269 14.1426 8.1709C14.1426 8.934 14.0185 9.62752 13.7939 10.2471C13.7845 10.2729 13.7657 10.2941 13.7412 10.3066C13.6847 10.3356 13.6157 10.311 13.5898 10.2529L13.0703 9.08496C13.0049 8.9377 12.8584 8.84277 12.6973 8.84277C12.5488 8.84286 12.4125 8.92363 12.3408 9.05371L11.8984 9.85645C11.7488 10.1281 11.4813 10.315 11.1748 10.3623L10.2578 10.5039C10.1561 10.5196 10.0685 10.5838 10.0225 10.6758C9.96483 10.791 9.98254 10.9294 10.0674 11.0264L10.7998 11.8643C10.9946 12.087 11.0808 12.3844 11.0352 12.6768L11.0234 12.7549L11.0078 12.8525C10.9637 13.134 10.802 13.3867 10.5352 13.4863C9.8987 13.7237 8.88092 13.9014 8.07129 13.9014C4.86701 13.9014 2 11.8461 2 8.1709C2.00003 5.28268 3.85536 2.10254 4.61426 2.10254C5.37314 2.10317 6.38536 5.13184 7.48145 5.13184C8.57768 5.13099 10.7693 1.93937 11.5283 2.10254Z" fill="#353E53"/>
<path d="M12.6227 9.45754C12.661 9.38525 12.7721 9.38525 12.8103 9.45754L13.4106 10.5922C13.4409 10.6495 13.4998 10.6893 13.5679 10.6986L14.9109 10.8806C14.9964 10.8922 15.0307 10.9896 14.9689 11.0457L13.996 11.9304C13.9471 11.9749 13.9248 12.0387 13.9363 12.1014L14.1659 13.3502C14.1805 13.4294 14.0907 13.4897 14.0141 13.4521L12.8142 12.8636C12.7531 12.8336 12.6799 12.8336 12.6188 12.8636L11.4189 13.4521C11.3423 13.4897 11.2525 13.4294 11.2671 13.3502L11.4967 12.1014C11.5082 12.0387 11.4859 11.9749 11.437 11.9304L10.4641 11.0457C10.4024 10.9896 10.4366 10.8922 10.5221 10.8806L11.8651 10.6986C11.9332 10.6893 11.9921 10.6495 12.0224 10.5922L12.6227 9.45754Z" fill="#353E53"/>
</svg>
