<svg width="16" height="16" viewBox="0 0 16 16" fill="none" xmlns="http://www.w3.org/2000/svg">
<path d="M10.3327 3.70807C10.3327 2.39636 9.28804 1.33301 7.99944 1.33301C7.91384 1.33301 7.82827 1.3378 7.74317 1.34737C6.46237 1.49144 5.5388 2.66514 5.68034 3.96891L5.8309 5.35607C5.95307 6.48137 6.88724 7.33301 7.99944 7.33301C9.11164 7.33301 10.0458 6.48137 10.168 5.35607L10.3186 3.96891C10.328 3.88231 10.3327 3.79521 10.3327 3.70807Z" fill="#4C4F5E"/>
<path d="M8.00065 8.33301C4.66488 8.33301 2.33398 9.65581 2.33398 11.5498V14.6663H13.6673V11.5498C13.6673 9.65581 11.3364 8.33301 8.00065 8.33301Z" fill="#4C4F5E"/>
</svg>
