<svg width="16" height="16" viewBox="0 0 16 16" fill="none" xmlns="http://www.w3.org/2000/svg">
<g clip-path="url(#clip0_1624_2831)">
<mask id="mask0_1624_2831" style="mask-type:luminance" maskUnits="userSpaceOnUse" x="0" y="0" width="16" height="16">
<path d="M16 0H0V16H16V0Z" fill="white"/>
</mask>
<g mask="url(#mask0_1624_2831)">
<path d="M8.00139 1.33301C9.28999 1.33301 10.3346 2.39636 10.3346 3.70807C10.3346 3.79521 10.3299 3.88231 10.3205 3.96891L10.1699 5.35607C10.0478 6.48137 9.11359 7.33301 8.00139 7.33301C6.88919 7.33301 5.95502 6.48137 5.83286 5.35607L5.68229 3.96891C5.54076 2.66514 6.46432 1.49144 7.74512 1.34737C7.83022 1.3378 7.91579 1.33301 8.00139 1.33301Z" fill="#353E53"/>
<path d="M9.89828 14.6663C8.94248 13.8715 8.33398 12.6733 8.33398 11.333C8.33398 10.213 8.75888 9.19231 9.45625 8.42317C8.99772 8.36397 8.51095 8.33301 8.00065 8.33301C4.66488 8.33301 2.33398 9.65581 2.33398 11.5498V14.6663H9.89828Z" fill="#353E53"/>
<path fill-rule="evenodd" clip-rule="evenodd" d="M11.8762 8L11.7093 8.84113C11.4308 8.9446 11.1734 9.08913 10.9473 9.2715L10.1251 8.99283L9.33398 10.3405L9.99192 10.9023C9.96858 11.043 9.95348 11.1862 9.95348 11.3333C9.95348 11.4805 9.96858 11.6237 9.99192 11.7643L9.33398 12.3262L10.1251 13.6738L10.9473 13.3952C11.1734 13.5775 11.4308 13.7221 11.7093 13.8255L11.8762 14.6667H13.4584L13.6254 13.8255C13.9038 13.7221 14.1613 13.5775 14.3873 13.3952L15.2096 13.6738L16.0007 12.3262L15.3427 11.7643C15.3661 11.6237 15.3812 11.4805 15.3812 11.3333C15.3812 11.1862 15.3661 11.043 15.3427 10.9023L16.0007 10.3405L15.2096 8.99283L14.3873 9.2715C14.1613 9.08913 13.9038 8.9446 13.6254 8.84113L13.4584 8H11.8762ZM13.7785 11.3333C13.7785 11.9469 13.281 12.4444 12.6673 12.4444C12.0537 12.4444 11.5562 11.9469 11.5562 11.3333C11.5562 10.7196 12.0537 10.2222 12.6673 10.2222C13.281 10.2222 13.7785 10.7196 13.7785 11.3333Z" fill="#353E53"/>
</g>
</g>
<defs>
<clipPath id="clip0_1624_2831">
<rect width="16" height="16" fill="white"/>
</clipPath>
</defs>
</svg>
