<svg width="24" height="24" viewBox="0 0 24 24" fill="none" xmlns="http://www.w3.org/2000/svg">
<g clip-path="url(#clip0_1197_2247)">
<mask id="mask0_1197_2247" style="mask-type:luminance" maskUnits="userSpaceOnUse" x="0" y="0" width="24" height="24">
<path d="M24 0H0V24H24V0Z" fill="white"/>
</mask>
<g mask="url(#mask0_1197_2247)">
<path d="M12.0001 2C13.933 2 15.5 3.59503 15.5 5.5626C15.5 5.6933 15.4929 5.82395 15.4788 5.95385L15.2529 8.0346C15.0697 9.72255 13.6684 11 12.0001 11C10.3318 11 8.93058 9.72255 8.74733 8.0346L8.52148 5.95385C8.30918 3.9982 9.69453 2.23765 11.6157 2.02155C11.7434 2.00719 11.8717 2 12.0001 2Z" fill="#1F2336" fill-opacity="0.8"/>
<path d="M14.8464 22C13.4128 20.8077 12.5 19.0104 12.5 17C12.5 15.3201 13.1374 13.789 14.1834 12.6353C13.4956 12.5465 12.7654 12.5 12 12.5C6.99635 12.5 3.5 14.4842 3.5 17.3252V22H14.8464Z" fill="#1F2336" fill-opacity="0.8"/>
<path fill-rule="evenodd" clip-rule="evenodd" d="M17.8134 12L17.5629 13.2617C17.1453 13.4169 16.7591 13.6337 16.42 13.9073L15.1867 13.4893L14 15.5107L14.9869 16.3535C14.9519 16.5645 14.9292 16.7793 14.9292 17C14.9292 17.2207 14.9519 17.4355 14.9869 17.6465L14 18.4893L15.1867 20.5107L16.42 20.0928C16.7591 20.3663 17.1453 20.5831 17.5629 20.7383L17.8134 22H20.1866L20.4371 20.7383C20.8547 20.5831 21.2409 20.3663 21.58 20.0928L22.8134 20.5107L24 18.4893L23.0131 17.6465C23.0481 17.4355 23.0707 17.2207 23.0707 17C23.0707 16.7793 23.0481 16.5645 23.0131 16.3535L24 15.5107L22.8134 13.4893L21.58 13.9073C21.2409 13.6337 20.8547 13.4169 20.4371 13.2617L20.1866 12H17.8134ZM20.6667 16.9999C20.6667 17.9204 19.9205 18.6666 19 18.6666C18.0795 18.6666 17.3333 17.9204 17.3333 16.9999C17.3333 16.0795 18.0795 15.3333 19 15.3333C19.9205 15.3333 20.6667 16.0795 20.6667 16.9999Z" fill="#1F2336" fill-opacity="0.8"/>
</g>
</g>
<defs>
<clipPath id="clip0_1197_2247">
<rect width="24" height="24" fill="white"/>
</clipPath>
</defs>
</svg>
