<svg width="16" height="16" viewBox="0 0 16 16" fill="none" xmlns="http://www.w3.org/2000/svg">
<g clip-path="url(#clip0_219_1881)">
<path d="M10.3327 3.70807C10.3327 2.39636 9.28804 1.33301 7.99944 1.33301C7.91384 1.33301 7.82827 1.3378 7.74317 1.34737C6.46237 1.49144 5.5388 2.66514 5.68034 3.96891L5.8309 5.35607C5.95307 6.48137 6.88724 7.33301 7.99944 7.33301C9.11164 7.33301 10.0458 6.48137 10.168 5.35607L10.3186 3.96891C10.328 3.88231 10.3327 3.79521 10.3327 3.70807Z" fill="#4C4F5E"/>
<path d="M8.00065 8.33301C4.66488 8.33301 2.33398 9.65581 2.33398 11.5498V14.6663H9.89828C8.94248 13.8715 8.33398 12.6733 8.33398 11.333C8.33398 10.213 8.75888 9.19231 9.45625 8.42317C8.99772 8.36397 8.51095 8.33301 8.00065 8.33301Z" fill="#4C4F5E"/>
<path fill-rule="evenodd" clip-rule="evenodd" d="M16.0007 11.3333C16.0007 13.1743 14.5083 14.6667 12.6673 14.6667C10.8264 14.6667 9.33398 13.1743 9.33398 11.3333C9.33398 9.4924 10.8264 8 12.6673 8C14.5083 8 16.0007 9.4924 16.0007 11.3333ZM13.0007 9.33333L10.6673 11.3333L13.0007 13.3333V11.8333H14.6673V10.8333H13.0007V9.33333Z" fill="#4C4F5E"/>
</g>
<defs>
<clipPath id="clip0_219_1881">
<rect width="16" height="16" fill="white"/>
</clipPath>
</defs>
</svg>
