<svg width="28" height="28" viewBox="0 0 28 28" fill="none" xmlns="http://www.w3.org/2000/svg">
<path d="M13.9755 26.1746C11.7836 26.1746 9.77171 25.4905 8.47635 24.4688C7.81854 24.652 6.97706 24.947 6.44602 25.3127C5.99165 25.6255 6.04828 25.9445 6.1302 26.0733C6.48977 26.639 12.2985 26.4345 13.9755 26.2583V26.1746Z" fill="#FAAD08"/>
<path d="M13.5801 26.1746C15.7719 26.1746 17.7839 25.4905 19.0792 24.4688C19.737 24.652 20.5785 24.947 21.1096 25.3127C21.5639 25.6255 21.5072 25.9445 21.4254 26.0733C21.0658 26.639 15.2571 26.4345 13.5801 26.2583V26.1746H13.5801Z" fill="#FAAD08"/>
<path d="M13.5933 12.9757C17.2009 12.9518 20.0921 12.2707 21.0718 12.0094C21.3053 11.947 21.4303 11.8354 21.4303 11.8354C21.4311 11.8033 21.4451 11.2625 21.4451 10.9835C21.4451 6.28495 19.1714 1.56378 13.58 1.56348C7.98864 1.56378 5.71484 6.28492 5.71484 10.9835C5.71484 11.2625 5.72895 11.8033 5.7298 11.8354C5.7298 11.8354 5.83144 11.9399 6.0177 11.9904C6.92218 12.236 9.86779 12.9512 13.5668 12.9757H13.5933Z" fill="black"/>
<path d="M23.5233 16.9472C23.3013 16.2339 22.9982 15.4021 22.6913 14.6033C22.6913 14.6033 22.5148 14.5816 22.4256 14.6073C19.6718 15.4059 16.3341 15.9149 13.7906 15.8842H13.7643C11.2351 15.9146 7.92008 15.4114 5.17556 14.6207C5.0707 14.5905 4.86365 14.6033 4.86365 14.6033C4.55677 15.4021 4.25372 16.2339 4.03172 16.9472C2.97302 20.3484 3.31599 21.7559 3.57718 21.7875C4.13762 21.8551 5.75867 19.2271 5.75867 19.2271C5.75867 21.8975 8.17377 25.9979 13.7041 26.0356C13.753 26.0354 13.8019 26.0354 13.8509 26.0356C19.3812 25.9979 21.7963 21.8975 21.7963 19.2271C21.7963 19.2271 23.4173 21.8552 23.9778 21.7875C24.239 21.756 24.5819 20.3484 23.5233 16.9472Z" fill="black"/>
<path d="M11.8778 8.66548C11.1149 8.69939 10.4629 7.84227 10.422 6.75262C10.3805 5.66223 10.965 4.75087 11.728 4.71677C12.4903 4.6833 13.1418 5.54006 13.1832 6.63012C13.225 7.72051 12.6404 8.63168 11.8778 8.66548ZM17.5289 6.75262C17.4881 7.84227 16.836 8.69933 16.0731 8.66548C15.3106 8.63163 14.7259 7.72051 14.7677 6.63015C14.8091 5.54001 15.4606 4.68324 16.2228 4.7168C16.986 4.75089 17.5704 5.66223 17.5289 6.75262Z" fill="white"/>
<path d="M18.7013 10.0794C18.5011 9.59795 16.4848 9.06152 13.9886 9.06152H13.9618C11.4655 9.06152 9.44919 9.59795 9.249 10.0794C9.23945 10.101 9.23447 10.1243 9.23438 10.1479C9.23438 10.1826 9.24512 10.214 9.26188 10.2405C9.43054 10.5075 11.6696 11.827 13.9618 11.827H13.9886C16.2807 11.827 18.5197 10.5076 18.6884 10.2406C18.7062 10.2129 18.7157 10.1807 18.7158 10.1478C18.7158 10.1232 18.7104 10.1003 18.7013 10.0794Z" fill="#FAAD08"/>
<path d="M12.7873 7.00991C12.8218 7.44429 12.5856 7.83022 12.2605 7.87238C11.9349 7.9146 11.6434 7.59668 11.6087 7.16205C11.5747 6.72742 11.8106 6.34152 12.1351 6.29968C12.4612 6.25733 12.7533 6.57553 12.7873 7.00991ZM14.786 7.22688C14.8553 7.11428 15.3282 6.52223 16.3069 6.73781C16.564 6.79441 16.6829 6.8777 16.708 6.91051C16.745 6.95891 16.7552 7.02782 16.7176 7.12062C16.6432 7.30451 16.4896 7.29951 16.4044 7.26352C16.3494 7.24028 15.6678 6.82906 15.0398 7.4427C14.9966 7.48495 14.9194 7.49942 14.8461 7.44932C14.7729 7.39917 14.7426 7.29748 14.786 7.22688Z" fill="black"/>
<path d="M13.7903 15.9824H13.7639C12.0257 16.0029 9.91806 15.7772 7.87712 15.383C7.70237 16.3745 7.59685 17.6208 7.68747 19.1071C7.91634 22.8637 10.1927 25.2249 13.7063 25.2593H13.8491C17.3628 25.2249 19.6391 22.8637 19.868 19.1071C19.9587 17.6207 19.8531 16.3744 19.6783 15.3828C17.637 15.7772 15.529 16.0031 13.7903 15.9824Z" fill="white"/>
<path d="M8.83984 15.7773V19.5362C8.83984 19.5362 10.616 19.8836 12.3954 19.6431V16.1759C11.2681 16.114 10.0523 15.9761 8.83984 15.7773Z" fill="#EB1C26"/>
<path d="M21.5493 11.8271C21.5493 11.8271 18.2139 12.9315 13.7907 12.963H13.7644C9.34846 12.9316 6.01715 11.8309 6.00577 11.8271L4.88867 14.7516C7.68282 15.6351 11.1459 16.2045 13.7644 16.1715L13.7906 16.1714C16.4093 16.2047 19.8719 15.6352 22.6664 14.7516L21.5493 11.8271Z" fill="#EB1C26"/>
</svg>
