<svg width="24" height="24" viewBox="0 0 24 24" fill="none" xmlns="http://www.w3.org/2000/svg">
<path d="M18 10C20.2092 10 22 8.20915 22 6C22 3.79086 20.2092 2 18 2C15.7909 2 14 3.79086 14 6C14 6.28745 14.0303 6.56775 14.0879 6.838L9.01695 9.3735C8.28365 8.5319 7.20395 8 6 8C3.79086 8 2 9.79085 2 12C2 14.2092 3.79086 16 6 16C7.2039 16 8.2836 15.4681 9.01695 14.6265L14.0879 17.162C14.0303 17.4323 14 17.7126 14 18C14 20.2092 15.7909 22 18 22C20.2092 22 22 20.2092 22 18C22 15.7909 20.2092 14 18 14C16.7961 14 15.7164 14.5319 14.9831 15.3735L9.91205 12.8381C9.9697 12.5678 10 12.2875 10 12C10 11.7126 9.9697 11.4323 9.9121 11.162L14.9831 8.6265C15.7164 9.4681 16.7961 10 18 10Z" fill="white"/>
</svg>
