<svg width="16" height="16" viewBox="0 0 16 16" fill="none" xmlns="http://www.w3.org/2000/svg">
<path d="M9.17948 3.52163L7.29378 5.40733L6.35104 4.46459L4.46544 6.35023L5.40814 7.29293L3.52261 9.17849C2.61139 10.0897 2.61139 11.5671 3.52261 12.4783C4.43384 13.3896 5.91121 13.3896 6.82244 12.4783L8.70798 10.5928L9.65081 11.5356L7.76524 13.4211C6.33334 14.8531 4.01171 14.8531 2.5798 13.4211C1.14788 11.9892 1.14788 9.66759 2.5798 8.23569L8.23664 2.57883C9.66858 1.1469 11.9902 1.1469 13.4221 2.57883C14.854 4.01076 14.854 6.33236 13.4221 7.76426L11.5364 9.64996L10.5936 8.70716L12.4793 6.82146C13.3905 5.91023 13.3905 4.43286 12.4793 3.52163C11.5681 2.61041 10.0907 2.61041 9.17948 3.52163Z" fill="black"/>
<path d="M9.88594 5.17188L5.17188 9.88591L6.11471 10.8287L10.8287 6.11468L9.88594 5.17188Z" fill="black"/>
</svg>
