<svg width="28" height="28" viewBox="0 0 28 28" fill="none" xmlns="http://www.w3.org/2000/svg">
<path d="M14.0007 26.0922C16.3924 26.0922 18.7303 25.383 20.7189 24.0543C22.7075 22.7255 24.2575 20.8369 25.1727 18.6273C26.088 16.4177 26.3274 13.9863 25.8609 11.6406C25.3943 9.29489 24.2426 7.14021 22.5514 5.44904C20.8602 3.75788 18.7056 2.60618 16.3598 2.13959C14.0141 1.67299 11.5827 1.91247 9.37311 2.82772C7.16349 3.74297 5.2749 5.2929 3.94616 7.2815C2.61742 9.2701 1.9082 11.6081 1.9082 13.9997C1.90763 15.5879 2.22002 17.1606 2.82752 18.628C3.43502 20.0954 4.32573 21.4287 5.44873 22.5517C6.57174 23.6747 7.90504 24.5654 9.37243 25.1729C10.8398 25.7804 12.4125 26.0928 14.0007 26.0922ZM14.0007 25.2479C12.7256 25.2676 11.4568 25.0647 10.2513 24.6485V16.9966L17.7501 24.561C16.5578 25.0348 15.2835 25.2682 14.0007 25.2479ZM21.8013 21.9754C20.9174 22.8885 19.881 23.6406 18.7388 24.1979L13.3226 18.786L23.9713 18.8385C23.461 20.0154 22.7253 21.081 21.8057 21.9754H21.8013ZM25.0345 14.0654C25.0543 15.3391 24.8514 16.6065 24.4351 17.8104H16.7832L24.352 10.3204C24.8259 11.5111 25.0593 12.7839 25.0388 14.0654H25.0345ZM18.6688 4.00286C19.8451 4.50995 20.9097 5.24443 21.8013 6.16411C22.7148 7.04876 23.4682 8.0849 24.0282 9.22661L18.6207 14.6429L18.6688 4.00286ZM14.0007 17.8716C13.2349 17.8716 12.4863 17.6445 11.8496 17.2191C11.2129 16.7936 10.7166 16.1889 10.4236 15.4814C10.1305 14.7739 10.0538 13.9954 10.2032 13.2444C10.3526 12.4933 10.7214 11.8034 11.2629 11.2619C11.8044 10.7204 12.4943 10.3517 13.2453 10.2023C13.9964 10.0529 14.7749 10.1295 15.4824 10.4226C16.1899 10.7156 16.7946 11.2119 17.2201 11.8486C17.6455 12.4854 17.8726 13.2339 17.8726 13.9997C17.8726 14.5082 17.7724 15.0117 17.5779 15.4814C17.3833 15.9512 17.0981 16.378 16.7385 16.7376C16.379 17.0971 15.9522 17.3823 15.4824 17.5769C15.0126 17.7715 14.5092 17.8716 14.0007 17.8716ZM14.0007 2.87848C15.2772 2.86518 16.5461 3.07544 17.7501 3.49973V11.156L10.2557 3.56536C11.4467 3.09234 12.7193 2.85892 14.0007 2.87848ZM6.20008 6.15536C7.08566 5.24293 8.1216 4.48966 9.26258 3.92848L14.6876 9.34473L4.03883 9.28786C4.54593 8.11155 5.2804 7.04701 6.20008 6.15536ZM2.97133 14.0654C2.95151 12.7916 3.15435 11.5243 3.5707 10.3204H11.2226L3.65383 17.8104C3.18341 16.6187 2.95152 15.3463 2.97133 14.0654ZM9.38945 13.4879L9.33695 24.1366C8.15959 23.6291 7.09369 22.8947 6.20008 21.9754C5.28769 21.0908 4.5357 20.0546 3.97758 18.9129L9.38945 13.4879Z" fill="white"/>
<path d="M17.7487 3.50038C16.5448 3.07608 15.2758 2.86583 13.9994 2.87913C12.7165 2.85899 11.4424 3.09242 10.25 3.566L17.7444 11.1348L17.7487 3.50038Z" fill="#FC6B4F"/>
<path d="M21.8041 6.15539C20.9125 5.23571 19.8479 4.50124 18.6716 3.99414L18.6191 14.6429L24.031 9.22664C23.4719 8.08182 22.7184 7.04267 21.8041 6.15539Z" fill="#7838F2"/>
<path d="M24.4395 17.8103C24.8558 16.6064 25.0586 15.339 25.0388 14.0653C25.0593 12.7839 24.8259 11.5111 24.352 10.3203L16.7832 17.8103H24.4395Z" fill="#5698F3"/>
<path d="M18.7331 24.198C19.8753 23.6407 20.9117 22.8886 21.7956 21.9755C22.7152 21.0812 23.4509 20.0155 23.9612 18.8386L13.3125 18.7861L18.7331 24.198Z" fill="#20E9F4"/>
<path d="M10.2559 24.6489C11.4599 25.0647 12.7272 25.2675 14.0009 25.2483C15.2822 25.2681 16.5549 25.0347 17.7459 24.5614L10.2559 16.9971V24.6489Z" fill="#00FD60"/>
<path d="M9.33594 24.137L9.38844 13.4883L3.97656 18.9002C4.53468 20.0419 5.28667 21.0781 6.19906 21.9627C7.09148 22.8867 8.15747 23.6256 9.33594 24.137Z" fill="#ABFB5B"/>
<path d="M3.56945 10.3203C3.1531 11.5242 2.95026 12.7916 2.97007 14.0653C2.95027 15.3463 3.18215 16.6187 3.65257 17.8103L11.2213 10.3203H3.56945Z" fill="#F0E254"/>
<path d="M9.27063 3.9375C8.12964 4.49867 7.0937 5.25195 6.20812 6.16437C5.28845 7.05602 4.55397 8.12057 4.04688 9.29687L14.6956 9.35375L9.27063 3.9375Z" fill="#F6B351"/>
</svg>
