<svg width="40" height="40" viewBox="0 0 40 40" fill="none" xmlns="http://www.w3.org/2000/svg">
<path d="M9.17495 17.738H7.35764C7.51577 20.1087 6.93555 21.9066 6.93555 21.9066L7.90989 23.6923C9.20171 23.1388 9.17495 17.738 9.17495 17.738ZM15.0769 17.738H13.2584C13.2584 17.738 13.2317 23.1388 14.5235 23.6923L15.4978 21.9066C15.4978 21.9066 14.9188 20.1087 15.0769 17.738ZM10.322 23.1692H9.17616C9.17616 24.5085 10.3086 24.6265 10.3086 24.6265H10.8876C12.0517 24.6265 12.0992 23.2957 12.0992 23.2957V15.3672H10.322V23.1692ZM16.4381 19.3716H17.6229L16.7191 21.2157C16.7191 21.2157 16.1924 22.252 17.0354 22.2873H19.0023L19.7881 20.8605H18.8052C18.7766 20.8604 18.7485 20.853 18.7235 20.839C18.6986 20.8251 18.6776 20.8049 18.6626 20.7805C18.6476 20.7562 18.6391 20.7284 18.6379 20.6998C18.6366 20.6712 18.6428 20.6428 18.6556 20.6172L20.125 17.7392H18.4208L18.3199 17.946H18.2068C18.1781 17.9459 18.15 17.9385 18.125 17.9245C18.1001 17.9106 18.0791 17.8904 18.0641 17.866C18.0491 17.8417 18.0406 17.8139 18.0394 17.7853C18.0382 17.7567 18.0443 17.7283 18.0571 17.7027L19.2808 15.3684H17.5767L16.1218 18.2999C16.1218 18.2999 15.5951 19.3363 16.4381 19.3716ZM16.6972 22.8615C16.6972 22.8615 16.4795 22.8809 16.3347 22.7362L15.4528 24.4355C15.4528 24.4355 15.5976 24.6325 15.8944 24.6325H18.0815L19.0169 22.8615H16.6972Z" fill="#FF0000"/>
<path d="M23.3047 17.7372H24.4286V15.9284H20.4072V17.7372H21.5482V22.9179H19.8622L19.0156 24.6257H25.0089V22.9179H23.3047V17.7372ZM31.3621 19.0716H31.1553V17.9014C31.1553 16.8055 30.2674 15.9175 29.1714 15.9175H28.4866V15.3652H26.7483V15.9175H25.6572V17.691H26.7483V19.0716H25.0089V20.8451H26.7471V24.6257H28.4853V20.8464H30.878C31.1128 20.8464 31.3037 21.0373 31.3037 21.2721V23.1344H29.6446C29.6446 23.9579 30.3124 24.6257 31.1359 24.6257H31.5847C32.4082 24.6257 33.076 23.9579 33.076 23.1344V20.7892C33.0785 19.8404 32.3097 19.0716 31.3621 19.0716ZM28.4866 17.6922H29.1118C29.2614 17.6922 29.3818 17.8126 29.3818 17.9623V19.0716H28.4866V17.6922Z" fill="#FF0000"/>
<path d="M33.0532 16.7889C33.0532 16.3133 32.6676 15.9277 32.1932 15.9277C31.9648 15.9277 31.7458 16.0185 31.5843 16.18C31.4228 16.3415 31.332 16.5605 31.332 16.7889V17.6502H32.1932C32.6676 17.6502 33.0532 17.2646 33.0532 16.7889Z" fill="#FF0000"/>
</svg>
