<svg width="28" height="28" viewBox="0 0 28 28" fill="none" xmlns="http://www.w3.org/2000/svg">
<path d="M23.28 16.1374C22.6731 14.3264 20.8085 13.665 20.384 13.6256C19.9595 13.5861 19.5748 13.3538 19.8564 12.8735C20.1381 12.3931 20.6576 10.9954 19.6582 10.0111C18.6584 9.02289 16.4723 9.3969 14.9251 10.0348C13.382 10.6726 13.4653 10.2277 13.5128 9.79073C13.5645 9.33004 14.3975 6.75503 11.8506 6.44399C8.51423 6.03849 4.2337 10.1371 2.72219 12.4995C0.43702 16.0667 0.798176 18.4802 0.798176 18.4802H0.814035C1.08772 21.8112 6.03087 24.4649 12.0886 24.4649C17.2976 24.4649 21.6852 22.5002 22.9824 19.8308C22.9824 19.8308 22.9863 19.8189 22.9982 19.7992C23.1332 19.5119 23.2363 19.2204 23.2999 18.9172C23.4822 18.2007 23.6213 17.1613 23.28 16.1374ZM11.339 23.0081C7.02659 23.0081 3.52757 20.7086 3.52757 17.8738C3.52757 15.0391 7.02265 12.7398 11.339 12.7398C15.6512 12.7398 19.1503 15.0391 19.1503 17.8738C19.1503 20.7125 15.6512 23.0081 11.339 23.0081Z" fill="#E71F19"/>
<path d="M21.9603 11.6304C22.0395 11.6659 22.1229 11.6815 22.2063 11.6815C22.4522 11.6815 22.6903 11.5358 22.7893 11.2956C22.952 10.9138 23.0352 10.5083 23.0352 10.0869C23.0352 8.37825 21.635 6.98828 19.9131 6.98828C19.4926 6.98828 19.084 7.07091 18.6991 7.23235C18.3777 7.36623 18.2271 7.73635 18.3618 8.05923C18.4967 8.37811 18.8697 8.52773 19.1949 8.39386C19.4251 8.29925 19.667 8.24812 19.917 8.24812C20.9405 8.24812 21.7696 9.07502 21.7696 10.0869C21.7696 10.3349 21.7222 10.5752 21.6228 10.8034C21.5897 10.8797 21.5722 10.9618 21.5712 11.045C21.5703 11.1282 21.586 11.2107 21.6175 11.2877C21.6489 11.3647 21.6954 11.4347 21.7542 11.4935C21.8131 11.5523 21.8831 11.5988 21.9601 11.6301L21.9603 11.6304Z" fill="#F5AA15"/>
<path d="M19.8772 3.12109C19.1671 3.12109 18.4649 3.22347 17.7904 3.42029C17.2867 3.56991 17.0011 4.09355 17.1479 4.59361C17.2985 5.09373 17.8261 5.3772 18.3301 5.23151C18.8327 5.08503 19.3537 5.01078 19.8772 5.01101C22.8646 5.01101 25.2964 7.42467 25.2964 10.3894C25.2964 10.9209 25.217 11.4484 25.0662 11.9524C24.9156 12.4525 25.1972 12.9802 25.7009 13.1296C25.7923 13.1573 25.8873 13.169 25.9787 13.169C26.3873 13.169 26.7641 12.9052 26.8912 12.4997C27.0975 11.8186 27.2046 11.1099 27.2046 10.3894C27.2007 6.38115 23.9157 3.12109 19.8772 3.12109Z" fill="#F5AA15"/>
<path d="M10.6187 14.6152C8.31767 14.6152 6.45312 16.2334 6.45312 18.2337C6.45312 20.2337 8.31767 21.8521 10.6187 21.8521C12.9196 21.8521 14.7841 20.2338 14.7841 18.2337C14.7841 16.2335 12.9196 14.6152 10.6187 14.6152ZM9.25794 20.5842C8.45255 20.5842 7.79806 19.9346 7.79806 19.1353C7.79806 18.3361 8.45269 17.6864 9.25794 17.6864C10.0633 17.6864 10.7178 18.3361 10.7178 19.1353C10.7178 19.9345 10.0633 20.5842 9.25794 20.5842ZM11.9874 17.9738C11.8129 18.2769 11.4598 18.403 11.2019 18.2532C10.9441 18.1077 10.8806 17.7414 11.0551 17.4383C11.2297 17.1351 11.5827 17.009 11.8405 17.1588C12.0984 17.3084 12.162 17.6746 11.9874 17.9738H11.9874Z" fill="#040000"/>
</svg>
