<svg width="28" height="28" viewBox="0 0 28 28" fill="none" xmlns="http://www.w3.org/2000/svg">
<path d="M18.6769 9.97213C18.9777 9.97213 19.2785 9.99991 19.5777 10.0262C18.7728 6.29081 14.735 3.5 10.1354 3.5C4.99192 3.51805 0.777344 6.99434 0.777344 11.4085C0.777344 13.9534 2.18224 16.0522 4.51592 17.6772L3.57395 20.4649L6.84962 18.8415C8.02316 19.0711 8.96521 19.3006 10.1238 19.3006C10.4246 19.3006 10.7106 19.2875 10.9965 19.2612C10.8107 18.6273 10.7145 17.9706 10.7106 17.31C10.7239 13.2631 14.2309 9.97377 18.6786 9.97377L18.677 9.97213H18.6769ZM13.6426 7.45672C14.3533 7.45672 14.816 7.91582 14.816 8.62088C14.816 9.30962 14.3533 9.78515 13.6426 9.78515C12.9467 9.78515 12.2377 9.32441 12.2377 8.62086C12.2377 7.91582 12.9467 7.45672 13.6426 7.45672ZM7.09257 9.78515C6.39848 9.78515 5.68782 9.32441 5.68782 8.62086C5.68782 7.91582 6.39848 7.45672 7.09257 7.45672C7.78847 7.45672 8.26611 7.91582 8.26611 8.62088C8.26611 9.30962 7.80335 9.78515 7.09257 9.78515ZM27.2218 17.2132C27.2218 13.5041 23.4832 10.4722 19.2652 10.4722C14.8176 10.4722 11.3105 13.5041 11.3105 17.2132C11.3105 20.9355 14.8176 23.9558 19.2652 23.9558C20.1942 23.9558 21.1362 23.7263 22.0767 23.4951L24.6418 24.8889L23.9327 22.5735C25.8169 21.1535 27.2218 19.2973 27.2218 17.2132ZM16.6869 16.0489C16.2242 16.0489 15.7449 15.5898 15.7449 15.1143C15.7449 14.6552 16.2242 14.1797 16.6869 14.1797C17.3976 14.1797 17.8605 14.6405 17.8605 15.1143C17.8605 15.5898 17.3976 16.0489 16.6869 16.0489ZM21.8321 16.0489C21.3677 16.0489 20.9032 15.5898 20.9032 15.1143C20.9032 14.6552 21.366 14.1797 21.8321 14.1797C22.5411 14.1797 23.0055 14.6405 23.0055 15.1143C23.0055 15.5898 22.5411 16.0489 21.8321 16.0489Z" fill="#09BB07"/>
</svg>
