<svg width="24" height="24" viewBox="0 0 24 24" fill="none" xmlns="http://www.w3.org/2000/svg">
<g clip-path="url(#clip0_4462_56105)">
<g filter="url(#filter0_d_4462_56105)">
<path d="M20 19H4V5H20V19ZM3 3C2.73478 3 2.48043 3.10536 2.29289 3.29289C2.10536 3.48043 2 3.73478 2 4V20C2 20.2652 2.10536 20.5196 2.29289 20.7071C2.48043 20.8946 2.73478 21 3 21H21C21.2652 21 21.5196 20.8946 21.7071 20.7071C21.8946 20.5196 22 20.2652 22 20V4C22 3.73478 21.8946 3.48043 21.7071 3.29289C21.5196 3.10536 21.2652 3 21 3H3ZM16 7V9H18V7H16ZM16 11V13H18V11H16ZM6 15V17H18V15H6ZM11 11V13H13V11H11ZM11 7V9H13V7H11ZM6 7V9H8V7H6ZM6 11V13H8V11H6Z" fill="url(#paint0_linear_4462_56105)" shape-rendering="crispEdges"/>
</g>
</g>
<defs>
<filter id="filter0_d_4462_56105" x="-2" y="0" width="28" height="26" filterUnits="userSpaceOnUse" color-interpolation-filters="sRGB">
<feFlood flood-opacity="0" result="BackgroundImageFix"/>
<feColorMatrix in="SourceAlpha" type="matrix" values="0 0 0 0 0 0 0 0 0 0 0 0 0 0 0 0 0 0 127 0" result="hardAlpha"/>
<feOffset dy="1"/>
<feGaussianBlur stdDeviation="2"/>
<feComposite in2="hardAlpha" operator="out"/>
<feColorMatrix type="matrix" values="0 0 0 0 0.00108924 0 0 0 0 0.68281 0 0 0 0 1 0 0 0 0.2 0"/>
<feBlend mode="normal" in2="BackgroundImageFix" result="effect1_dropShadow_4462_56105"/>
<feBlend mode="normal" in="SourceGraphic" in2="effect1_dropShadow_4462_56105" result="shape"/>
</filter>
<linearGradient id="paint0_linear_4462_56105" x1="12.543" y1="10.3019" x2="-1.74075" y2="12.1055" gradientUnits="userSpaceOnUse">
<stop offset="0.197115" stop-color="#00AEFF"/>
<stop offset="1" stop-color="#C5E0E6" stop-opacity="0.7"/>
</linearGradient>
<clipPath id="clip0_4462_56105">
<rect width="24" height="24" fill="white" transform="matrix(-1 0 0 1 24 0)"/>
</clipPath>
</defs>
</svg>
