<svg width="24" height="24" viewBox="0 0 24 24" fill="none" xmlns="http://www.w3.org/2000/svg">
<path d="M12.0004 2C17.5229 2 22 6.47714 22 12.0004C22 17.5229 17.5229 22 12.0004 22C6.47714 22 2 17.5229 2 12.0004C2 6.47714 6.47714 2 12.0004 2ZM12.0004 3.39537C7.24818 3.39537 3.39537 7.24818 3.39537 12.0004C3.39537 16.7526 7.24818 20.6046 12.0004 20.6046C16.7526 20.6046 20.6046 16.7526 20.6046 12.0004C20.6046 7.24818 16.7526 3.39537 12.0004 3.39537Z" fill="#2C7FEB"/>
<path d="M8.08705 9.43917C8.37536 9.43917 8.65186 9.31068 8.85572 9.08197C9.05958 8.85325 9.17411 8.54304 9.17411 8.21959C9.17411 7.89613 9.05958 7.58593 8.85572 7.35721C8.65186 7.12849 8.37536 7 8.08705 7C7.79875 7 7.52225 7.12849 7.31839 7.35721C7.11453 7.58593 7 7.89613 7 8.21959C7 8.54304 7.11453 8.85325 7.31839 9.08197C7.52225 9.31068 7.79875 9.43917 8.08705 9.43917ZM8.08705 13.3417C8.37536 13.3417 8.65186 13.2132 8.85572 12.9845C9.05958 12.7558 9.17411 12.4456 9.17411 12.1221C9.17411 11.7986 9.05958 11.4884 8.85572 11.2597C8.65186 11.031 8.37536 10.9025 8.08705 10.9025C7.79875 10.9025 7.52225 11.031 7.31839 11.2597C7.11453 11.4884 7 11.7986 7 12.1221C7 12.4456 7.11453 12.7558 7.31839 12.9845C7.52225 13.2132 7.79875 13.3417 8.08705 13.3417ZM12 9.43917C12.2883 9.43917 12.5648 9.31068 12.7687 9.08197C12.9725 8.85325 13.0871 8.54304 13.0871 8.21959C13.0871 7.89613 12.9725 7.58593 12.7687 7.35721C12.5648 7.12849 12.2883 7 12 7C11.7117 7 11.4352 7.12849 11.2313 7.35721C11.0275 7.58593 10.9129 7.89613 10.9129 8.21959C10.9129 8.54304 11.0275 8.85325 11.2313 9.08197C11.4352 9.31068 11.7117 9.43917 12 9.43917ZM12 13.3417C12.2883 13.3417 12.5648 13.2132 12.7687 12.9845C12.9725 12.7558 13.0871 12.4456 13.0871 12.1221C13.0871 11.7986 12.9725 11.4884 12.7687 11.2597C12.5648 11.031 12.2883 10.9025 12 10.9025C11.7117 10.9025 11.4352 11.031 11.2313 11.2597C11.0275 11.4884 10.9129 11.7986 10.9129 12.1221C10.9129 12.4456 11.0275 12.7558 11.2313 12.9845C11.4352 13.2132 11.7117 13.3417 12 13.3417ZM15.9129 9.43917C16.2013 9.43917 16.4777 9.31068 16.6816 9.08197C16.8855 8.85325 17 8.54304 17 8.21959C17 7.89613 16.8855 7.58593 16.6816 7.35721C16.4777 7.12849 16.2013 7 15.9129 7C15.6246 7 15.3481 7.12849 15.1443 7.35721C14.9404 7.58593 14.8259 7.89613 14.8259 8.21959C14.8259 8.54304 14.9404 8.85325 15.1443 9.08197C15.3481 9.31068 15.6246 9.43917 15.9129 9.43917ZM15.9129 13.3417C16.2013 13.3417 16.4777 13.2132 16.6816 12.9845C16.8855 12.7558 17 12.4456 17 12.1221C17 11.7986 16.8855 11.4884 16.6816 11.2597C16.4777 11.031 16.2013 10.9025 15.9129 10.9025C15.6246 10.9025 15.3481 11.031 15.1443 11.2597C14.9404 11.4884 14.8259 11.7986 14.8259 12.1221C14.8259 12.4456 14.9404 12.7558 15.1443 12.9845C15.3481 13.2132 15.6246 13.3417 15.9129 13.3417Z" fill="#2C7FEB"/>
<path d="M14.6923 15.5371C14.8653 15.5371 15.0312 15.6142 15.1535 15.7514C15.2758 15.8886 15.3445 16.0747 15.3445 16.2688C15.3445 16.4628 15.2758 16.6489 15.1535 16.7861C15.0312 16.9234 14.8653 17.0004 14.6923 17.0004H8.60528C8.43232 17.0004 8.26644 16.9234 8.14414 16.7861C8.02183 16.6489 7.95312 16.4628 7.95312 16.2688C7.95312 16.0747 8.02183 15.8886 8.14414 15.7514C8.26644 15.6142 8.43232 15.5371 8.60528 15.5371H14.6923Z" fill="#2C7FEB"/>
</svg>
