<svg width="20" height="20" viewBox="0 0 20 20" fill="none" xmlns="http://www.w3.org/2000/svg">
<path d="M1.66699 4.71287C1.66699 4.40871 1.83249 4.12962 2.11316 4.01243C2.78835 3.73053 4.16928 3.27018 5.83537 3.35436C7.46183 3.43654 8.68808 3.93374 9.37533 4.29225V16.8052C8.58474 16.4762 7.16399 15.9606 5.82133 15.8604C4.29145 15.7462 2.94219 15.9868 2.22134 16.157C1.94533 16.2222 1.66699 16.0148 1.66699 15.7312V4.71287Z" fill="#2C7FEB"/>
<path d="M10.625 16.8052C11.4156 16.4762 12.8363 15.9606 14.179 15.8604C15.7089 15.7462 17.0581 15.9868 17.779 16.157C18.055 16.2222 18.3333 16.0148 18.3333 15.7312V4.71287C18.3333 4.40871 18.1678 4.12962 17.8872 4.01243C17.212 3.73053 15.831 3.27018 14.165 3.35436C12.5385 3.43654 11.3122 3.93374 10.625 4.29225V16.8052Z" fill="#2C7FEB"/>
</svg>
