<svg width="24" height="24" viewBox="0 0 24 24" fill="none" xmlns="http://www.w3.org/2000/svg">
<path d="M20.8235 12C20.8235 7.1269 16.8731 3.17647 12 3.17647C7.1269 3.17647 3.17647 7.1269 3.17647 12C3.17647 16.8731 7.1269 20.8235 12 20.8235V22C6.47715 22 2 17.5228 2 12C2 6.47715 6.47715 2 12 2C17.5228 2 22 6.47715 22 12C22 17.5228 17.5228 22 12 22V20.8235C16.8731 20.8235 20.8235 16.8731 20.8235 12Z" fill="url(#paint0_linear_4274_2573)"/>
<path d="M10.5996 6C10.8205 6 11 6.17947 11 6.40039V17.5996C11 17.8205 10.8205 18 10.5996 18C10.3788 17.9999 10.2002 17.8205 10.2002 17.5996V6.40039C10.2002 6.17954 10.3788 6.00011 10.5996 6ZM7.39941 8.39941C7.62033 8.39941 7.7998 8.57889 7.7998 8.7998V16C7.79966 16.2208 7.62024 16.3994 7.39941 16.3994C7.17874 16.3992 7.00015 16.2207 7 16V8.7998C7.00001 8.579 7.17865 8.39959 7.39941 8.39941ZM13.7998 8.39941C14.0207 8.39941 14.2002 8.57889 14.2002 8.7998V16C14.2001 16.2208 14.0206 16.3994 13.7998 16.3994C13.579 16.3994 13.3996 16.2208 13.3994 16V8.7998C13.3994 8.57892 13.5789 8.39945 13.7998 8.39941ZM17 10C17.2209 10 17.4004 10.1795 17.4004 10.4004V14.4004C17.4002 14.6211 17.2207 14.7998 17 14.7998C16.7792 14.7998 16.5998 14.6211 16.5996 14.4004V10.4004C16.5996 10.1795 16.7791 10 17 10Z" fill="url(#paint1_linear_4274_2573)"/>
<defs>
<linearGradient id="paint0_linear_4274_2573" x1="4.82609" y1="-19.875" x2="39.2112" y2="-1.69333" gradientUnits="userSpaceOnUse">
<stop stop-color="#1930D9"/>
<stop offset="1" stop-color="#2DA5F0"/>
</linearGradient>
<linearGradient id="paint1_linear_4274_2573" x1="8.46962" y1="-7.125" x2="27.3786" y2="1.54064" gradientUnits="userSpaceOnUse">
<stop stop-color="#1930D9"/>
<stop offset="1" stop-color="#2DA5F0"/>
</linearGradient>
</defs>
</svg>
