<svg width="24" height="24" viewBox="0 0 24 24" fill="none" xmlns="http://www.w3.org/2000/svg">
<circle cx="12" cy="12" r="10" fill="url(#paint0_linear_5496_2101)"/>
<path d="M11.105 6.54492C11.3559 6.54497 11.5589 6.74814 11.5591 6.99902V17.9082C11.5591 18.1592 11.356 18.3632 11.105 18.3633C10.8539 18.3633 10.6499 18.1592 10.6499 17.9082V6.99902C10.6501 6.74811 10.854 6.54492 11.105 6.54492ZM7.90576 9.27148C8.15668 9.27148 8.36065 9.47471 8.36084 9.72559V16.0898C8.3607 16.3408 8.15671 16.5439 7.90576 16.5439C7.65503 16.5437 7.4518 16.3406 7.45166 16.0898V9.72559C7.45185 9.47487 7.65506 9.27174 7.90576 9.27148ZM14.3032 9.27148C14.5541 9.27148 14.7581 9.47471 14.7583 9.72559V16.0898C14.7582 16.3408 14.5542 16.5439 14.3032 16.5439C14.0525 16.5437 13.8493 16.3406 13.8491 16.0898V9.72559C13.8493 9.47487 14.0525 9.27174 14.3032 9.27148ZM17.5054 10.1816C17.7563 10.1816 17.9603 10.3849 17.9604 10.6357V15.1816C17.9604 15.4326 17.7564 15.6357 17.5054 15.6357C17.2546 15.6355 17.0513 15.4325 17.0513 15.1816V10.6357C17.0515 10.385 17.2547 10.1819 17.5054 10.1816Z" fill="white"/>
<defs>
<linearGradient id="paint0_linear_5496_2101" x1="4.82609" y1="-19.875" x2="39.2112" y2="-1.69333" gradientUnits="userSpaceOnUse">
<stop stop-color="#1930D9"/>
<stop offset="1" stop-color="#2DA5F0"/>
</linearGradient>
</defs>
</svg>
