<svg width="16" height="16" viewBox="0 0 16 16" fill="none" xmlns="http://www.w3.org/2000/svg">
<path d="M6.00065 1.33301C5.63245 1.33301 5.33398 1.63148 5.33398 1.99967V3.33301H10.6673V1.99967C10.6673 1.63148 10.3689 1.33301 10.0007 1.33301H6.00065Z" fill="#4C4F5E"/>
<path fill-rule="evenodd" clip-rule="evenodd" d="M11.666 4.33301H4.33268V2.33301H3.33268C2.96449 2.33301 2.66602 2.63148 2.66602 2.99967V13.9997C2.66602 14.3679 2.96449 14.6663 3.33268 14.6663H12.666C13.0342 14.6663 13.3327 14.3679 13.3327 13.9997V2.99967C13.3327 2.63148 13.0342 2.33301 12.666 2.33301H11.666V4.33301ZM5.33268 11.333C5.33268 10.5966 5.92965 9.99967 6.66602 9.99967H9.33268C10.069 9.99967 10.666 10.5966 10.666 11.333V11.9997H5.33268V11.333ZM7.99935 9.33301C8.73572 9.33301 9.33268 8.73604 9.33268 7.99967C9.33268 7.26331 8.73572 6.66634 7.99935 6.66634C7.26298 6.66634 6.66602 7.26331 6.66602 7.99967C6.66602 8.73604 7.26298 9.33301 7.99935 9.33301Z" fill="#4C4F5E"/>
</svg>
