<svg width="16" height="16" viewBox="0 0 16 16" fill="none" xmlns="http://www.w3.org/2000/svg">
<g clip-path="url(#clip0_129_892)">
<path fill-rule="evenodd" clip-rule="evenodd" d="M3.33268 1.33301C2.96449 1.33301 2.66602 1.63148 2.66602 1.99967V13.9997C2.66602 14.3679 2.96449 14.6663 3.33268 14.6663H11.0496C10.9473 14.5813 10.8466 14.4909 10.7485 14.3951C9.98352 13.6484 9.33268 12.5314 9.33268 11.03V8.55194L13.166 6.91201L13.3327 6.98331V1.99967C13.3327 1.63148 13.0342 1.33301 12.666 1.33301H3.33268ZM4.66602 3.33301H9.33268V4.66634H4.66602V3.33301ZM4.66602 5.99967H7.33268V7.33301H4.66602V5.99967Z" fill="#4C4F5E"/>
<path fill-rule="evenodd" clip-rule="evenodd" d="M10.334 9.21213L13.1673 8L16.0007 9.21213V11.0303C16.0007 13.403 13.9736 14.5109 13.1673 14.6667C12.3611 14.5109 10.334 13.403 10.334 11.0303V9.21213ZM12.813 13.0644L15.3653 10.342L14.6358 9.65803L12.813 11.6023L12.032 10.7691L11.3024 11.4531L12.813 13.0644Z" fill="#4C4F5E"/>
</g>
<defs>
<clipPath id="clip0_129_892">
<rect width="16" height="16" fill="white"/>
</clipPath>
</defs>
</svg>
