<svg width="28" height="28" viewBox="0 0 28 28" fill="none" xmlns="http://www.w3.org/2000/svg">
<g filter="url(#filter0_d_6536_42896)">
<path d="M13.625 22.25C13.1 22.25 12.75 21.9 12.75 21.375V3.875C12.75 3.35 13.1 3 13.625 3C14.15 3 14.5 3.35 14.5 3.875V21.375C14.5 21.9 14.15 22.25 13.625 22.25ZM18 18.75C17.475 18.75 17.125 18.4 17.125 17.875V7.375C17.125 6.85 17.475 6.5 18 6.5C18.525 6.5 18.875 6.85 18.875 7.375V17.875C18.875 18.4 18.525 18.75 18 18.75ZM4.875 16.125C4.35 16.125 4 15.775 4 15.25V10C4 9.475 4.35 9.125 4.875 9.125C5.4 9.125 5.75 9.475 5.75 10V15.25C5.75 15.775 5.4 16.125 4.875 16.125ZM22.375 16.125C21.85 16.125 21.5 15.775 21.5 15.25V10C21.5 9.475 21.85 9.125 22.375 9.125C22.9 9.125 23.25 9.475 23.25 10V15.25C23.25 15.775 22.9 16.125 22.375 16.125ZM9.25 18.75C8.725 18.75 8.375 18.4 8.375 17.875V7.375C8.375 6.85 8.725 6.5 9.25 6.5C9.775 6.5 10.125 6.85 10.125 7.375V17.875C10.125 18.4 9.775 18.75 9.25 18.75Z" fill="url(#paint0_linear_6536_42896)"/>
</g>
<defs>
<filter id="filter0_d_6536_42896" x="0" y="0" width="27.25" height="27.25" filterUnits="userSpaceOnUse" color-interpolation-filters="sRGB">
<feFlood flood-opacity="0" result="BackgroundImageFix"/>
<feColorMatrix in="SourceAlpha" type="matrix" values="0 0 0 0 0 0 0 0 0 0 0 0 0 0 0 0 0 0 127 0" result="hardAlpha"/>
<feOffset dy="1"/>
<feGaussianBlur stdDeviation="2"/>
<feComposite in2="hardAlpha" operator="out"/>
<feColorMatrix type="matrix" values="0 0 0 0 0.00108924 0 0 0 0 0.68281 0 0 0 0 1 0 0 0 0.2 0"/>
<feBlend mode="normal" in2="BackgroundImageFix" result="effect1_dropShadow_6536_42896"/>
<feBlend mode="normal" in="SourceGraphic" in2="effect1_dropShadow_6536_42896" result="shape"/>
</filter>
<linearGradient id="paint0_linear_6536_42896" x1="1.5" y1="3" x2="23.3981" y2="1.87051" gradientUnits="userSpaceOnUse">
<stop offset="0.197115" stop-color="#6E95FF"/>
<stop offset="1" stop-color="#C5BAFF"/>
</linearGradient>
</defs>
</svg>
