<svg width="20" height="20" viewBox="0 0 20 20" fill="none" xmlns="http://www.w3.org/2000/svg">
<path d="M15.6027 4.44359H4.66172C4.08062 4.44359 3.63633 4.88813 3.63633 5.4693V15.0082C3.63633 15.5553 4.0807 16.0341 4.66172 16.0341H15.6027C16.1498 16.0341 16.6287 15.5553 16.6287 15.0082V5.46938C16.6287 4.92227 16.1841 4.44359 15.6027 4.44359H15.6027ZM6.98695 6.18734C7.56828 6.18734 8.08102 6.66594 8.08102 7.28125C8.08102 7.89664 7.60242 8.37531 6.98695 8.37531C6.40578 8.37531 5.89289 7.89664 5.89289 7.28125C5.89289 6.66594 6.40578 6.18727 6.98695 6.18727V6.18734ZM6.2007 14.4954C6.09789 14.4954 5.99555 14.4611 5.89289 14.3928C5.68773 14.2219 5.68773 13.9825 5.85883 13.7775L7.97859 10.803C8.14945 10.6319 8.38898 10.5978 8.59398 10.7345L10.4403 12.0337L13.757 8.47789C13.9278 8.30703 14.7481 7.41797 15.227 8.40938V14.4611C15.2268 14.4955 6.2007 14.4955 6.2007 14.4955V14.4954ZM17.5 2.5H15V1.25H18.75V5H17.5V2.5ZM17.5 17.5V15H18.75V18.75H15V17.5H17.5ZM2.5 17.5H5V18.75H1.25V15H2.5V17.5ZM2.5 2.5V5H1.25V1.25H5V2.5H2.5Z" fill="#2C7FEB"/>
</svg>
