<svg width="24" height="24" viewBox="0 0 24 24" fill="none" xmlns="http://www.w3.org/2000/svg">
<rect x="2" y="2" width="20" height="20" rx="10" fill="url(#paint0_linear_4274_2649)"/>
<rect x="11.5293" y="16.939" width="9.41177" height="1.17647" rx="0.588235" transform="rotate(-90 11.5293 16.939)" fill="white"/>
<path d="M11.6504 7.19336C11.9086 6.93555 12.3269 6.93541 12.585 7.19336C12.5915 7.19988 12.5963 7.20813 12.6025 7.21484C12.6105 7.2221 12.6202 7.22763 12.6279 7.23535L16.042 10.6504C16.2997 10.9086 16.2999 11.3269 16.042 11.585C15.7838 11.8432 15.3646 11.8432 15.1064 11.585L12.1172 8.5957L9.12891 11.585C8.87072 11.8432 8.45155 11.8432 8.19336 11.585C7.93542 11.3269 7.93556 10.9086 8.19336 10.6504L11.6504 7.19336Z" fill="white"/>
<defs>
<linearGradient id="paint0_linear_4274_2649" x1="4.82609" y1="-19.875" x2="39.2112" y2="-1.69333" gradientUnits="userSpaceOnUse">
<stop stop-color="#1930D9"/>
<stop offset="1" stop-color="#2DA5F0"/>
</linearGradient>
</defs>
</svg>
