<svg width="16" height="16" viewBox="0 0 16 16" fill="none" xmlns="http://www.w3.org/2000/svg">
<path fill-rule="evenodd" clip-rule="evenodd" d="M6.28563 1.26843C6.3166 1.1124 6.4535 1 6.61256 1H9.38783C9.5469 1 9.6838 1.1124 9.7148 1.26843L9.97586 2.58372C9.9984 2.69725 10.0785 2.79031 10.1857 2.83396C10.6463 3.02151 11.0774 3.26385 11.4676 3.55747C11.5588 3.6261 11.6777 3.64793 11.7858 3.6113L13.0819 3.17207C13.2315 3.12134 13.3963 3.18272 13.4763 3.31902L14.8588 5.67417C14.9406 5.81353 14.9107 5.99147 14.7878 6.0964L13.7618 6.97263C13.6729 7.04853 13.6309 7.1653 13.6469 7.28107C13.6794 7.5165 13.6993 7.75567 13.6993 8C13.6993 8.24433 13.6794 8.4835 13.6469 8.71893C13.6309 8.8347 13.6729 8.95147 13.7618 9.02737L14.7878 9.9036C14.9107 10.0085 14.9406 10.1865 14.8588 10.3258L13.4763 12.681C13.3963 12.8173 13.2315 12.8787 13.0819 12.8279L11.7858 12.3887C11.6777 12.3521 11.5588 12.3739 11.4676 12.4425C11.0774 12.7362 10.6463 12.9785 10.1857 13.166C10.0785 13.2097 9.9984 13.3027 9.97586 13.4163L9.7148 14.7316C9.6838 14.8876 9.5469 15 9.38783 15H6.61256C6.4535 15 6.3166 14.8876 6.28563 14.7316L6.02453 13.4163C6.002 13.3027 5.9219 13.2097 5.8147 13.166C5.35406 12.9785 4.92303 12.7362 4.53276 12.4425C4.44156 12.3739 4.3227 12.3521 4.2146 12.3887L2.91855 12.8279C2.76886 12.8787 2.60412 12.8173 2.5241 12.681L1.14159 10.3258C1.05979 10.1865 1.08971 10.0085 1.21259 9.9036L2.23865 9.02737C2.32751 8.95147 2.36948 8.8347 2.35349 8.71893C2.32097 8.4835 2.30114 8.24433 2.30114 8C2.30114 7.75567 2.32097 7.5165 2.35349 7.28107C2.36948 7.1653 2.32751 7.04853 2.23865 6.97263L1.21259 6.0964C1.08971 5.99147 1.05979 5.81353 1.14159 5.67417L2.5241 3.31902C2.60412 3.18272 2.76886 3.12134 2.91855 3.17207L4.2146 3.6113C4.3227 3.64793 4.44156 3.6261 4.53276 3.55747C4.92303 3.26385 5.35406 3.02151 5.8147 2.83396C5.9219 2.79031 6.002 2.69725 6.02453 2.58372L6.28563 1.26843ZM8.0002 10.3333C9.28886 10.3333 10.3335 9.28867 10.3335 8C10.3335 6.71133 9.28886 5.66667 8.0002 5.66667C6.71153 5.66667 5.66686 6.71133 5.66686 8C5.66686 9.28867 6.71153 10.3333 8.0002 10.3333Z" fill="#353E53"/>
</svg>
