<svg width="16" height="16" viewBox="0 0 16 16" fill="none" xmlns="http://www.w3.org/2000/svg">
<path d="M13.3336 7.99967C13.3336 10.9452 10.9458 13.333 8.00023 13.333C7.21789 13.333 6.47493 13.1646 5.80559 12.862L5.13613 14.0215C6.00386 14.4349 6.97503 14.6663 8.00023 14.6663C11.6821 14.6663 14.6669 11.6816 14.6669 7.99967C14.6669 4.31777 11.6821 1.33301 8.00023 1.33301C6.42939 1.33301 4.98543 1.8763 3.84603 2.78524L3.06052 1.99975L2.17871 5.23857L5.41756 4.35677L4.79633 3.73554C5.68836 3.06424 6.79783 2.66634 8.00023 2.66634C10.9458 2.66634 13.3336 5.05414 13.3336 7.99967Z" fill="#353E53"/>
<path d="M2.8741 6.52101L1.58569 6.17578C1.4211 6.75558 1.33301 7.36755 1.33301 8.00008C1.33301 8.40271 1.3687 8.79698 1.43709 9.17995L2.73103 8.83321C2.68845 8.56175 2.66634 8.28351 2.66634 8.00008C2.66634 7.48691 2.73882 6.99065 2.8741 6.52101Z" fill="#353E53"/>
<path d="M2.97929 9.80176C3.35408 10.8459 4.04531 11.7393 4.93738 12.3662L4.26851 13.5247C3.07661 12.718 2.15965 11.5358 1.6875 10.1479L2.97929 9.80176Z" fill="#353E53"/>
<path fill-rule="evenodd" clip-rule="evenodd" d="M12.3337 8.00033C12.3337 10.3936 10.3936 12.3337 8.00033 12.3337C5.60709 12.3337 3.66699 10.3936 3.66699 8.00033C3.66699 5.60709 5.60709 3.66699 8.00033 3.66699C10.3936 3.66699 12.3337 5.60709 12.3337 8.00033ZM8.50033 6.00033V8.12656L10.0206 9.64676L9.31343 10.3539L7.50033 8.54076V6.00033H8.50033Z" fill="#353E53"/>
</svg>
