<svg width="16" height="16" viewBox="0 0 16 16" fill="none" xmlns="http://www.w3.org/2000/svg">
<path d="M12.0007 6.66634C13.4734 6.66634 14.6673 5.47244 14.6673 3.99967C14.6673 2.52691 13.4734 1.33301 12.0007 1.33301C10.5279 1.33301 9.33398 2.52691 9.33398 3.99967C9.33398 4.19131 9.35418 4.37817 9.39258 4.55834L6.01195 6.24867C5.52308 5.68761 4.80328 5.33301 4.00065 5.33301C2.52789 5.33301 1.33398 6.52691 1.33398 7.99967C1.33398 9.47244 2.52789 10.6663 4.00065 10.6663C4.80325 10.6663 5.52305 10.3117 6.01195 9.75067L9.39258 11.441C9.35418 11.6212 9.33398 11.8081 9.33398 11.9997C9.33398 13.4724 10.5279 14.6663 12.0007 14.6663C13.4734 14.6663 14.6673 13.4724 14.6673 11.9997C14.6673 10.5269 13.4734 9.33301 12.0007 9.33301C11.198 9.33301 10.4782 9.68761 9.98935 10.2487L6.60868 8.55837C6.64712 8.37821 6.66732 8.19131 6.66732 7.99967C6.66732 7.80807 6.64712 7.62117 6.60872 7.44101L9.98935 5.75067C10.4782 6.31174 11.198 6.66634 12.0007 6.66634Z" fill="#4C4F5E"/>
</svg>
