<svg width="12" height="12" viewBox="0 0 12 12" fill="none" xmlns="http://www.w3.org/2000/svg">
<g clip-path="url(#clip0_383_758)">
<path d="M5.22385 11.2392C5.12963 11.3067 5.0216 11.3525 4.90755 11.3733C4.7935 11.3941 4.67626 11.3893 4.56429 11.3593C4.45231 11.3293 4.34838 11.2748 4.25999 11.1998C4.1716 11.1248 4.10095 11.0311 4.05313 10.9255C3.93817 10.6718 3.74662 10.4605 3.50539 10.3212C3.26416 10.182 2.98536 10.1218 2.70816 10.1491C2.59282 10.1605 2.47638 10.1461 2.36726 10.107C2.25813 10.068 2.15903 10.0052 2.07708 9.92323C1.99513 9.84126 1.93239 9.74214 1.89336 9.633C1.85432 9.52386 1.83998 9.40743 1.85136 9.29208C1.87868 9.01486 1.81846 8.73604 1.67916 8.49481C1.53986 8.25357 1.32848 8.06204 1.07472 7.94712C0.969124 7.8993 0.875446 7.82864 0.800439 7.74025C0.725433 7.65186 0.670967 7.54793 0.640964 7.43596C0.610962 7.32398 0.60617 7.20675 0.626934 7.09269C0.647699 6.97864 0.693502 6.87062 0.761045 6.7764C0.923264 6.55002 1.0105 6.27851 1.0105 6C1.0105 5.7215 0.923264 5.44999 0.761045 5.2236C0.693502 5.12938 0.647699 5.02136 0.626934 4.90731C0.60617 4.79326 0.610962 4.67602 0.640964 4.56404C0.670967 4.45207 0.725433 4.34814 0.800439 4.25975C0.875446 4.17136 0.969124 4.10071 1.07472 4.05288C1.32844 3.93792 1.53976 3.74638 1.67902 3.50514C1.81827 3.26391 1.87846 2.98512 1.85112 2.70792C1.83978 2.59257 1.85415 2.47614 1.89321 2.36701C1.93227 2.25789 1.99505 2.15878 2.07702 2.07684C2.15899 1.99489 2.25811 1.93214 2.36725 1.89311C2.47638 1.85408 2.59282 1.83974 2.70816 1.85112C2.98539 1.87844 3.2642 1.81822 3.50544 1.67891C3.74667 1.53961 3.93821 1.32824 4.05313 1.07448C4.10095 0.96888 4.1716 0.875201 4.25999 0.800195C4.34838 0.725189 4.45231 0.670723 4.56429 0.64072C4.67626 0.610718 4.7935 0.605926 4.90755 0.62669C5.0216 0.647455 5.12963 0.693258 5.22385 0.7608C5.45023 0.923019 5.72174 1.01025 6.00025 1.01025C6.27875 1.01025 6.55026 0.923019 6.77665 0.7608C6.87086 0.693258 6.97889 0.647455 7.09294 0.62669C7.20699 0.605926 7.32423 0.610718 7.4362 0.64072C7.54818 0.670723 7.65211 0.725189 7.7405 0.800195C7.82889 0.875201 7.89954 0.96888 7.94736 1.07448C8.06232 1.32819 8.25387 1.53952 8.4951 1.67877C8.73633 1.81803 9.01513 1.87822 9.29233 1.85088C9.40767 1.83953 9.52411 1.85391 9.63323 1.89297C9.74236 1.93203 9.84146 1.9948 9.92341 2.07677C10.0054 2.15874 10.0681 2.25787 10.1071 2.367C10.1462 2.47614 10.1605 2.59257 10.1491 2.70792C10.1218 2.98514 10.182 3.26396 10.3213 3.50519C10.4606 3.74643 10.672 3.93796 10.9258 4.05288C11.0314 4.10071 11.125 4.17136 11.2001 4.25975C11.2751 4.34814 11.3295 4.45207 11.3595 4.56404C11.3895 4.67602 11.3943 4.79326 11.3736 4.90731C11.3528 5.02136 11.307 5.12938 11.2394 5.2236C11.0772 5.44999 10.99 5.7215 10.99 6C10.99 6.27851 11.0772 6.55002 11.2394 6.7764C11.307 6.87062 11.3528 6.97864 11.3736 7.09269C11.3943 7.20675 11.3895 7.32398 11.3595 7.43596C11.3295 7.54793 11.2751 7.65186 11.2001 7.74025C11.125 7.82864 11.0314 7.8993 10.9258 7.94712C10.6721 8.06208 10.4607 8.25362 10.3215 8.49486C10.1822 8.73609 10.122 9.01488 10.1494 9.29208C10.1607 9.40743 10.1463 9.52386 10.1073 9.63299C10.0682 9.74211 10.0054 9.84122 9.92347 9.92317C9.8415 10.0051 9.74238 10.0679 9.63324 10.1069C9.52411 10.1459 9.40767 10.1603 9.29233 10.1489C9.0151 10.1216 8.73629 10.1818 8.49505 10.3211C8.25382 10.4604 8.06228 10.6718 7.94736 10.9255C7.89954 11.0311 7.82889 11.1248 7.7405 11.1998C7.65211 11.2748 7.54818 11.3293 7.4362 11.3593C7.32423 11.3893 7.20699 11.3941 7.09294 11.3733C6.97889 11.3525 6.87086 11.3067 6.77665 11.2392C6.55026 11.077 6.27875 10.9897 6.00025 10.9897C5.72174 10.9897 5.45023 11.077 5.22385 11.2392Z" fill="#007DFA"/>
<path d="M8.36181 4.34638C8.42704 4.28092 8.51495 4.24304 8.60733 4.2406C8.69971 4.23816 8.78949 4.27135 8.85808 4.33328C8.92667 4.39521 8.96882 4.48114 8.9758 4.57329C8.98278 4.66544 8.95406 4.75675 8.89557 4.8283L8.87085 4.85566L5.81613 7.91038C5.75313 7.97337 5.66902 8.01076 5.58005 8.01533C5.49107 8.0199 5.40357 7.99131 5.33445 7.9351L5.30709 7.91038L3.61005 6.21358C3.54451 6.14839 3.50655 6.06049 3.50404 5.96808C3.50153 5.87567 3.53467 5.78584 3.59659 5.71719C3.65851 5.64855 3.74446 5.60635 3.83664 5.59935C3.92882 5.59235 4.02016 5.62108 4.09173 5.67958L4.11909 5.7043L5.56149 7.14646L8.36181 4.34662V4.34638Z" fill="white"/>
</g>
<defs>
<clipPath id="clip0_383_758">
<rect width="12" height="12" fill="white"/>
</clipPath>
</defs>
</svg>
