<svg width="16" height="16" viewBox="0 0 16 16" fill="none" xmlns="http://www.w3.org/2000/svg">
<path d="M8.00011 2.66668C6.89375 2.66668 5.86605 3.00356 5.01405 3.58034L4.32715 2.43552C5.38035 1.73893 6.64288 1.33334 8.00011 1.33334C11.682 1.33334 14.6668 4.31811 14.6668 8.00001C14.6668 9.58901 14.1109 11.0481 13.1829 12.1936L10.9697 8.50484C10.8364 8.28268 10.9964 8.00001 11.2555 8.00001H13.3334C13.3334 5.05448 10.9456 2.66668 8.00011 2.66668Z" fill="#2C7FEB"/>
<path d="M1.33301 7.99999C1.33301 6.41099 1.88893 4.95186 2.81688 3.80643L3.55961 5.04429L5.03011 7.49519C5.16341 7.71736 5.00337 8.00003 4.74427 8.00003H2.66634C2.66636 10.9455 5.05417 13.3333 7.99967 13.3333C9.10604 13.3333 10.1337 12.9965 10.9857 12.4197L11.6726 13.5645C10.6194 14.2611 9.35691 14.6667 7.99967 14.6667C4.31777 14.6667 1.33303 11.6819 1.33301 7.99999Z" fill="#2C7FEB"/>
</svg>
