<svg width="16" height="16" viewBox="0 0 16 16" fill="none" xmlns="http://www.w3.org/2000/svg">
<path d="M8.389 3.33333C7.74466 3.33333 7.22233 2.811 7.22233 2.16667C7.22233 1.52233 7.74466 1 8.389 1C9.03333 1 9.55566 1.52233 9.55566 2.16667C9.55566 2.811 9.03333 3.33333 8.389 3.33333Z" fill="#6075FE"/>
<path d="M8.38854 14.9999C7.31467 14.9999 6.44411 14.1294 6.44411 13.0555C6.44411 11.9816 7.31467 11.111 8.38854 11.111C9.46244 11.111 10.333 11.9816 10.333 13.0555C10.333 14.1294 9.46244 14.9999 8.38854 14.9999Z" fill="#6075FE"/>
<path d="M3.33366 2.94444C3.33366 3.58878 3.85599 4.11111 4.50033 4.11111C5.14466 4.11111 5.66699 3.58878 5.66699 2.94444C5.66699 2.3001 5.14466 1.77777 4.50033 1.77777C3.85599 1.77777 3.33366 2.3001 3.33366 2.94444Z" fill="#6075FE"/>
<path d="M2.16634 8.00008C1.52201 8.00008 0.999674 7.47775 0.999674 6.83341C0.999674 6.18908 1.52201 5.66675 2.16634 5.66675C2.81067 5.66675 3.33301 6.18908 3.33301 6.83341C3.33301 7.47775 2.81067 8.00008 2.16634 8.00008Z" fill="#6075FE"/>
<path d="M1.77757 11.1111C1.77757 11.9702 2.47401 12.6666 3.33314 12.6666C4.19224 12.6666 4.88867 11.9702 4.88867 11.1111C4.88867 10.252 4.19224 9.55554 3.33314 9.55554C2.47401 9.55554 1.77757 10.252 1.77757 11.1111Z" fill="#6075FE"/>
<path d="M14.2222 8.00002C13.7927 8.00002 13.4444 7.65179 13.4444 7.22226C13.4444 6.79269 13.7927 6.44446 14.2222 6.44446C14.6518 6.44446 15 6.79269 15 7.22226C15 7.65179 14.6518 8.00002 14.2222 8.00002Z" fill="#6075FE"/>
<path d="M11.8888 3.33329C11.8888 3.76286 12.237 4.11106 12.6666 4.11106C13.0961 4.11106 13.4443 3.76286 13.4443 3.33329C13.4443 2.90373 13.0961 2.55551 12.6666 2.55551C12.237 2.55551 11.8888 2.90373 11.8888 3.33329Z" fill="#6075FE"/>
<path d="M12.6666 11.8888C12.237 11.8888 11.8888 11.5406 11.8888 11.1111C11.8888 10.6815 12.237 10.3333 12.6666 10.3333C13.0961 10.3333 13.4443 10.6815 13.4443 11.1111C13.4443 11.5406 13.0961 11.8888 12.6666 11.8888Z" fill="#6075FE"/>
</svg>
