<svg width="32" height="32" viewBox="0 0 32 32" fill="none" xmlns="http://www.w3.org/2000/svg">
<path d="M4.53125 6.6499H7.53437V7.7499H4.53125V6.6499Z" fill="#999999"/>
<path d="M26.9859 8.65645H23.3078C22.9328 8.65645 22.5828 8.46895 22.3766 8.15645L20.8016 5.79395C20.5953 5.48145 20.2453 5.29395 19.8703 5.29395H12.1172C11.7422 5.29395 11.3922 5.48145 11.1859 5.79395L9.61406 8.15645C9.40781 8.46895 9.05781 8.65645 8.68281 8.65645H5.01094C3.35156 8.65645 2.00781 10.0033 2.00781 11.6596V23.7002C2.00781 25.3596 3.35469 26.7033 5.01094 26.7033H26.9859C28.6453 26.7033 29.9891 25.3564 29.9891 23.7002V11.6596C29.9891 10.0033 28.6453 8.65645 26.9859 8.65645ZM15.9984 24.4908C12.4516 24.4908 9.56094 21.6064 9.56094 18.0533C9.56094 14.5064 12.4484 11.6158 15.9984 11.6158C19.5453 11.6158 22.4359 14.5033 22.4359 18.0533C22.4359 21.6033 19.5453 24.4908 15.9984 24.4908ZM25.1453 11.5877C25.1453 12.0814 24.7453 12.4783 24.2516 12.4814H24.2359C23.7422 12.4814 23.3422 12.0814 23.3422 11.5877V11.5721C23.3422 11.0783 23.7422 10.6783 24.2359 10.6783H24.2516C24.7453 10.6783 25.1453 11.0783 25.1453 11.5721V11.5877Z" fill="#999999"/>
<path d="M15.9984 13.0186C13.2172 13.0186 10.9609 15.2748 10.9609 18.0561C10.9609 20.8404 13.2172 23.0936 15.9984 23.0936C18.7828 23.0936 21.0359 20.8404 21.0359 18.0561C21.0359 15.2748 18.7828 13.0186 15.9984 13.0186Z" fill="#999999"/>
</svg>
