<svg width="16" height="16" viewBox="0 0 16 16" fill="none" xmlns="http://www.w3.org/2000/svg">
<g clip-path="url(#clip0_5706_51214)">
<path d="M0 8C0 10.1217 0.842855 12.1566 2.34315 13.6569C3.84344 15.1571 5.87827 16 8 16C10.1217 16 12.1566 15.1571 13.6569 13.6569C15.1571 12.1566 16 10.1217 16 8C16 5.87827 15.1571 3.84344 13.6569 2.34315C12.1566 0.842855 10.1217 0 8 0C5.87827 0 3.84344 0.842855 2.34315 2.34315C0.842855 3.84344 0 5.87827 0 8Z" fill="#FF0000"/>
<path d="M4.96691 3.9592L12.038 11.0303C12.1053 11.0976 12.1053 11.165 12.038 11.2323L11.2299 12.0404C11.1625 12.1078 11.0952 12.1078 11.0278 12.0404L3.95676 4.96935C3.88941 4.90201 3.88941 4.83466 3.95676 4.76732L4.76488 3.9592C4.83222 3.89186 4.89957 3.89186 4.96691 3.9592Z" fill="white"/>
<path d="M11.2299 3.9592L12.038 4.76732C12.1053 4.83466 12.1053 4.90201 12.038 4.96935L4.96691 12.0404C4.89957 12.1078 4.83222 12.1078 4.76488 12.0404L3.95676 11.2323C3.88941 11.165 3.88941 11.0976 3.95676 11.0303L11.0278 3.9592C11.0952 3.89186 11.1625 3.89186 11.2299 3.9592Z" fill="white"/>
</g>
<defs>
<clipPath id="clip0_5706_51214">
<rect width="16" height="16" fill="white"/>
</clipPath>
</defs>
</svg>
