<svg width="14" height="14" viewBox="0 0 14 14" fill="none" xmlns="http://www.w3.org/2000/svg">
<g opacity="0.5">
<path d="M7.29007 1.33223C7.11075 1.22975 6.89058 1.22975 6.71126 1.33223L1.31884 4.41361C1.12289 4.52558 1.12289 4.80811 1.31884 4.92008L7.00068 8.16686L12.6825 4.92008C12.8785 4.80811 12.8785 4.52558 12.6825 4.41361L7.29007 1.33223Z" fill="#353E53"/>
<path d="M7.00068 9.17446L4.07719 7.50391L1.31884 9.0801C1.12289 9.19207 1.12289 9.47461 1.31884 9.58658L6.71126 12.668C6.89058 12.7704 7.11075 12.7704 7.29007 12.668L12.6825 9.58658C12.8785 9.47461 12.8785 9.19207 12.6825 9.0801L9.92414 7.50391L7.00068 9.17446Z" fill="#353E53"/>
</g>
</svg>
