<svg width="20" height="20" viewBox="0 0 20 20" fill="none" xmlns="http://www.w3.org/2000/svg">
<path d="M9.95898 2.52148C10.9727 2.52148 11.9551 2.71875 12.8789 3.11133C13.7715 3.48828 14.5742 4.0293 15.2637 4.71875C15.9531 5.4082 16.4941 6.21094 16.8711 7.10352C17.2617 8.02734 17.4609 9.00977 17.4609 10.0234C17.4609 11.0371 17.2637 12.0195 16.8711 12.9434C16.4941 13.8359 15.9531 14.6387 15.2637 15.3281C14.5742 16.0176 13.7715 16.5586 12.8789 16.9355C11.9551 17.3262 10.9727 17.5254 9.95898 17.5254C8.94531 17.5254 7.96289 17.3242 7.03906 16.9316C6.14648 16.5547 5.34375 16.0137 4.6543 15.3242C3.96484 14.6348 3.42383 13.832 3.04688 12.9395C2.65625 12.0156 2.45703 11.0332 2.45703 10.0195C2.45703 9.00586 2.65625 8.02539 3.04688 7.10156C3.42383 6.20898 3.96484 5.40625 4.6543 4.7168C5.34375 4.02734 6.14648 3.48633 7.03906 3.10938C7.96289 2.71875 8.94531 2.52148 9.95898 2.52148ZM9.95898 1.27148C5.12695 1.27148 1.20898 5.18945 1.20898 10.0215C1.20898 14.8535 5.12695 18.7715 9.95898 18.7715C14.791 18.7715 18.709 14.8535 18.709 10.0215C18.709 5.18945 14.791 1.27148 9.95898 1.27148Z" fill="#353E53" fill-opacity="0.2"/>
</svg>
