<svg width="18" height="18" viewBox="0 0 18 18" fill="none" xmlns="http://www.w3.org/2000/svg">
<path fill-rule="evenodd" clip-rule="evenodd" d="M2.17109 12.0755C2.42005 12.3244 2.8237 12.3244 3.07265 12.0755L8.59913 6.549C8.75507 6.39306 8.84527 6.30356 8.91647 6.24312C8.94558 6.2184 8.96302 6.20612 8.97111 6.20084C8.98805 6.19686 9.0057 6.19686 9.02264 6.20084C9.03073 6.20612 9.04817 6.2184 9.07728 6.24312C9.14848 6.30356 9.23868 6.39306 9.39462 6.549L14.9211 12.0755C15.1701 12.3244 15.5737 12.3244 15.8227 12.0755C16.0716 11.8265 16.0716 11.4229 15.8227 11.1739L10.281 5.63227C10.1456 5.49684 10.0182 5.36945 9.90243 5.27113C9.77662 5.16433 9.62317 5.05495 9.42564 4.99076C9.14697 4.90022 8.84678 4.90022 8.56811 4.99076C8.37058 5.05495 8.21713 5.16433 8.09132 5.27113C7.97551 5.36944 7.84815 5.49683 7.71274 5.63226L2.17109 11.1739C1.92213 11.4229 1.92213 11.8265 2.17109 12.0755Z" fill="#1A1A1A"/>
</svg>
