<svg width="18" height="18" viewBox="0 0 18 18" fill="none" xmlns="http://www.w3.org/2000/svg">
<path fill-rule="evenodd" clip-rule="evenodd" d="M15.8289 5.92453C15.5799 5.67557 15.1763 5.67557 14.9273 5.92453L9.40087 11.451C9.24493 11.6069 9.15473 11.6964 9.08353 11.7569C9.05442 11.7816 9.03698 11.7939 9.02889 11.7992C9.01195 11.8031 8.9943 11.8031 8.97736 11.7992C8.96927 11.7939 8.95183 11.7816 8.92272 11.7569C8.85152 11.6964 8.76132 11.6069 8.60538 11.451L3.07891 5.92453C2.82995 5.67557 2.4263 5.67557 2.17735 5.92453C1.92839 6.17349 1.92839 6.57713 2.17735 6.82609L7.71899 12.3677C7.85439 12.5032 7.98176 12.6306 8.09757 12.7289C8.22338 12.8357 8.37683 12.9451 8.57436 13.0092C8.85303 13.0998 9.15322 13.0998 9.43189 13.0092C9.62942 12.9451 9.78287 12.8357 9.90868 12.7289C10.0245 12.6306 10.1519 12.5032 10.2873 12.3677L15.8289 6.82609C16.0779 6.57713 16.0779 6.17349 15.8289 5.92453Z" fill="#1A1A1A"/>
</svg>
