<svg width="24" height="24" viewBox="0 0 24 24" fill="none" xmlns="http://www.w3.org/2000/svg">
<path fill-rule="evenodd" clip-rule="evenodd" d="M15.5993 2.39935C15.9313 2.7313 15.9313 3.26949 15.5993 3.60143L7.7307 11.4701C7.52277 11.678 7.40344 11.7983 7.32285 11.8932C7.2899 11.932 7.27352 11.9553 7.26649 11.966C7.26117 11.9886 7.26117 12.0122 7.26649 12.0347C7.27352 12.0455 7.2899 12.0688 7.32285 12.1076C7.40344 12.2025 7.52277 12.3228 7.7307 12.5307L15.5993 20.3994C15.9313 20.7313 15.9313 21.2695 15.5993 21.6014C15.2674 21.9334 14.7292 21.9334 14.3972 21.6014L6.50837 13.7126C6.3278 13.532 6.15795 13.3622 6.02688 13.2078C5.88447 13.0401 5.73862 12.8355 5.65305 12.5721C5.53232 12.2005 5.53232 11.8003 5.65305 11.4287C5.73862 11.1653 5.88447 10.9607 6.02688 10.793C6.15796 10.6386 6.32781 10.4688 6.50838 10.2882L14.3972 2.39935C14.7292 2.0674 15.2674 2.0674 15.5993 2.39935Z" fill="#1A1A1A"/>
</svg>
