<svg width="15" height="14" viewBox="0 0 15 14" fill="none" xmlns="http://www.w3.org/2000/svg">
<path d="M1.03057 2.35696C0.549929 1.87632 0.549928 1.09704 1.03057 0.616404C1.51121 0.135763 2.29048 0.135764 2.77112 0.616404L7.48086 5.32614L12.1906 0.616404C12.6712 0.135765 13.4505 0.135764 13.9311 0.616404C14.4118 1.09704 14.4118 1.87632 13.9311 2.35696L9.22141 7.06669L13.9567 11.802C14.4374 12.2827 14.4374 13.0619 13.9567 13.5426C13.4761 14.0232 12.6968 14.0232 12.2162 13.5426L7.48085 8.80724L2.74553 13.5426C2.26489 14.0232 1.48561 14.0232 1.00497 13.5426C0.524333 13.0619 0.524333 12.2827 1.00497 11.802L5.7403 7.06669L1.03057 2.35696Z" fill="#FF6464"/>
</svg>
