<svg width="14" height="14" viewBox="0 0 14 14" fill="none" xmlns="http://www.w3.org/2000/svg">
<path d="M8.08381 6.99991L13.7841 1.29745C14.072 1.00951 14.072 0.53505 13.7841 0.247107L13.753 0.215957C13.4652 -0.0719858 12.9909 -0.0719858 12.7031 0.215957L7.00275 5.92639L1.30262 0.215957C1.0148 -0.0719858 0.540528 -0.0719858 0.252702 0.215957L0.221565 0.247107C-0.0738551 0.53505 -0.0738551 1.00951 0.221565 1.29745L5.92189 7.00009L0.221565 12.7025C-0.0660709 12.9905 -0.0660709 13.465 0.221565 13.7529L0.252702 13.784C0.540528 14.072 1.0148 14.072 1.30262 13.784L7.00275 8.0814L12.7031 13.7839C12.9909 14.0718 13.4652 14.0718 13.753 13.7839L13.7841 13.7527C14.072 13.4648 14.072 12.9903 13.7841 12.7024L8.08381 6.99991Z" fill="black" fill-opacity="0.9"/>
</svg>
