<svg width="23" height="19" viewBox="0 0 23 19" fill="none" xmlns="http://www.w3.org/2000/svg">
<path d="M3.09375 1.07617H14.4229C15.5436 1.07631 16.4519 1.98475 16.4521 3.10547V4.30176C16.4521 11.8396 10.3416 17.9502 2.80371 17.9502C1.79891 17.9501 0.98441 17.1357 0.984375 16.1309V3.18555C0.984375 2.02063 1.92883 1.07617 3.09375 1.07617Z" stroke="black" stroke-opacity="0.7" stroke-width="1.40618"/>
<mask id="path-2-inside-1_4005_13596" fill="white">
<path d="M9.83973 15.9782L11.8686 12.2099L14.113 15.7347L9.83973 15.9782ZM22.1465 9.22194C22.4961 9.77136 22.3339 10.5 21.7845 10.8498L17.6386 13.4897C15.6918 14.7294 13.1083 14.1568 11.8686 12.2099L18.7855 7.8055C19.7521 7.19032 21.0344 7.47537 21.6498 8.44185L22.1465 9.22194Z"/>
</mask>
<path d="M9.83973 15.9782L11.8686 12.2099L14.113 15.7347L9.83973 15.9782ZM22.1465 9.22194C22.4961 9.77136 22.3339 10.5 21.7845 10.8498L17.6386 13.4897C15.6918 14.7294 13.1083 14.1568 11.8686 12.2099L18.7855 7.8055C19.7521 7.19032 21.0344 7.47537 21.6498 8.44185L22.1465 9.22194Z" fill="white"/>
<path d="M9.83973 15.9782L8.6016 15.3116L7.40983 17.5251L9.91973 17.3821L9.83973 15.9782ZM11.8686 12.2099L11.1133 11.0238L10.8042 11.2206L10.6304 11.5433L11.8686 12.2099ZM14.113 15.7347L14.193 17.1386L16.5872 17.0022L15.2992 14.9794L14.113 15.7347ZM22.1465 9.22194L23.3329 8.46704L23.3326 8.46666L22.1465 9.22194ZM18.7855 7.8055L18.0305 6.6192L18.0303 6.61937L18.7855 7.8055ZM21.6498 8.44185L20.4636 9.19713L21.6498 8.44185ZM9.83973 15.9782L11.0779 16.6448L13.1067 12.8765L11.8686 12.2099L10.6304 11.5433L8.6016 15.3116L9.83973 15.9782ZM11.8686 12.2099L10.6825 12.9652L12.9269 16.49L14.113 15.7347L15.2992 14.9794L13.0547 11.4546L11.8686 12.2099ZM14.113 15.7347L14.033 14.3308L9.75973 14.5743L9.83973 15.9782L9.91973 17.3821L14.193 17.1386L14.113 15.7347ZM22.1465 9.22194L20.9601 9.97683C20.8924 9.87044 20.9244 9.73044 21.0292 9.66369L21.7845 10.8498L22.5398 12.0359C23.7433 11.2696 24.0998 9.67228 23.3329 8.46704L22.1465 9.22194ZM21.7845 10.8498L21.0292 9.66369L16.8834 12.3036L17.6386 13.4897L18.3939 14.6759L22.5398 12.0359L21.7845 10.8498ZM17.6386 13.4897L16.8834 12.3036C15.5912 13.1264 13.877 12.7461 13.0547 11.4546L11.8686 12.2099L10.6825 12.9652C12.3395 15.5675 15.7923 16.3325 18.3939 14.6759L17.6386 13.4897ZM11.8686 12.2099L12.6239 13.3961L19.5408 8.99162L18.7855 7.8055L18.0303 6.61937L11.1133 11.0238L11.8686 12.2099ZM18.7855 7.8055L19.5406 8.99179C19.8517 8.79377 20.2651 8.88526 20.4636 9.19713L21.6498 8.44185L22.8359 7.68658C21.8037 6.06548 19.6525 5.58687 18.0305 6.6192L18.7855 7.8055ZM21.6498 8.44185L20.4636 9.19713L20.9604 9.97722L22.1465 9.22194L23.3326 8.46666L22.8359 7.68658L21.6498 8.44185Z" fill="black" fill-opacity="0.7" mask="url(#path-2-inside-1_4005_13596)"/>
<path d="M4.5 4.5918H12.9371C12.9371 5.36841 12.3075 5.99798 11.5309 5.99798H4.5V4.5918Z" fill="black" fill-opacity="0.7"/>
<path d="M4.5 8.81006H12.9371C12.9371 9.58667 12.3075 10.2162 11.5309 10.2162H4.5V8.81006Z" fill="black" fill-opacity="0.7"/>
<path d="M4.5 13.0288H8.71854C8.71854 13.8054 8.08898 14.435 7.31236 14.435H4.5V13.0288Z" fill="black" fill-opacity="0.7"/>
</svg>
