<svg width="93" height="98" viewBox="0 0 93 98" fill="none" xmlns="http://www.w3.org/2000/svg">
<g opacity="0.5">
<path d="M70.7158 67.262C70.4283 65.4532 71.6617 63.7538 73.4705 63.4664C75.2794 63.1789 76.9788 64.4123 77.2662 66.2211L78.4289 73.5382C78.7164 75.347 77.483 77.0464 75.6742 77.3338C73.8653 77.6213 72.1659 76.3879 71.8785 74.5791L70.7158 67.262Z" fill="white"/>
<path d="M43.747 73.6116C43.4596 71.8028 44.6929 70.1034 46.5018 69.816C48.3106 69.5285 50.01 70.7619 50.2975 72.5707L51.4805 80.0158C51.768 81.8247 50.5346 83.524 48.7258 83.8115C46.9169 84.0989 45.2175 82.8656 44.9301 81.0567L43.747 73.6116Z" fill="white"/>
</g>
</svg>
