<svg width="51" height="51" viewBox="0 0 51 51" fill="none" xmlns="http://www.w3.org/2000/svg">
<path d="M43.3188 38.7125C43.4782 38.7125 43.625 38.5562 43.625 38.3875C43.625 38.2188 43.4782 38.0656 43.3188 38.0656C43.1594 38.0656 43.0125 38.2219 43.0125 38.3875C43.0125 38.5562 43.1594 38.7125 43.3188 38.7125ZM36.4557 46.2C36.5682 46.3187 36.7276 46.3875 36.8839 46.3875C36.9647 46.3873 37.0447 46.3705 37.1189 46.3383C37.193 46.306 37.2598 46.259 37.3152 46.2C37.4283 46.0762 37.491 45.9146 37.491 45.7469C37.491 45.5792 37.4283 45.4176 37.3152 45.2937C37.2597 45.2349 37.1929 45.188 37.1188 45.1557C37.0446 45.1235 36.9647 45.1067 36.8839 45.1063C36.8035 45.1069 36.7242 45.1239 36.6506 45.1561C36.577 45.1883 36.5107 45.2352 36.4557 45.2937C36.3419 45.4172 36.2788 45.579 36.2788 45.7469C36.2788 45.9148 36.3419 46.0765 36.4557 46.2ZM27.4706 50.2188C27.6394 50.3969 27.8769 50.5 28.1144 50.5C28.2351 50.4989 28.3544 50.4734 28.465 50.425C28.5756 50.3767 28.6754 50.3065 28.7582 50.2188C28.93 50.0328 29.0254 49.789 29.0254 49.5359C29.0254 49.2828 28.93 49.039 28.7582 48.8531C28.6756 48.7648 28.576 48.694 28.4654 48.6452C28.3547 48.5963 28.2354 48.5703 28.1144 48.5687C27.9937 48.5699 27.8745 48.5954 27.7638 48.6437C27.6532 48.6921 27.5535 48.7622 27.4706 48.85C27.298 49.0361 27.202 49.2805 27.202 49.5344C27.202 49.7882 27.298 50.0327 27.4706 50.2188ZM17.7855 49.9375C18.0105 50.1719 18.3261 50.3125 18.6449 50.3125C18.8055 50.3108 18.9642 50.2767 19.1113 50.2123C19.2584 50.1479 19.3911 50.0544 19.5012 49.9375C19.7299 49.6898 19.8568 49.3652 19.8568 49.0281C19.8568 48.6911 19.7299 48.3664 19.5012 48.1188C19.3911 48.0019 19.2584 47.9084 19.1113 47.844C18.9642 47.7795 18.8055 47.7454 18.6449 47.7438C18.4838 47.745 18.3245 47.7789 18.1768 47.8433C18.0291 47.9078 17.896 48.0015 17.7855 48.1188C17.5584 48.3666 17.4324 48.6905 17.4324 49.0266C17.4324 49.3627 17.5584 49.6866 17.7855 49.9344V49.9375ZM9.20665 45.4531C9.48793 45.75 9.88171 45.9219 10.2786 45.9219C10.4802 45.9203 10.6793 45.878 10.8641 45.7974C11.0488 45.7169 11.2154 45.5997 11.3537 45.4531C11.6394 45.1432 11.7981 44.7371 11.7981 44.3156C11.7981 43.8941 11.6394 43.488 11.3537 43.1781C11.2154 43.0315 11.0488 42.9144 10.8641 42.8338C10.6793 42.7533 10.4802 42.7109 10.2786 42.7094C10.0776 42.7114 9.87903 42.7539 9.69483 42.8344C9.51064 42.915 9.34459 43.0319 9.20665 43.1781C8.92091 43.488 8.76227 43.8941 8.76227 44.3156C8.76227 44.7371 8.92091 45.1432 9.20665 45.4531ZM3.29055 37.6719C3.62808 38.0312 4.10312 38.2406 4.57816 38.2406C4.82034 38.2383 5.05956 38.1871 5.28139 38.0899C5.50322 37.9926 5.70307 37.8515 5.86889 37.675C6.21173 37.3028 6.40205 36.8154 6.40205 36.3094C6.40205 35.8034 6.21173 35.3159 5.86889 34.9438C5.70307 34.7672 5.50322 34.6261 5.28139 34.5289C5.05956 34.4317 4.82034 34.3804 4.57816 34.3781C4.33675 34.3806 4.09832 34.4317 3.87709 34.5283C3.65587 34.625 3.45638 34.7652 3.29055 34.9406C2.94682 35.313 2.75595 35.8011 2.75595 36.3078C2.75595 36.8145 2.94682 37.3027 3.29055 37.675V37.6719ZM1.12163 28.0719C1.31513 28.2768 1.54801 28.4405 1.80631 28.5533C2.06462 28.6661 2.34304 28.7255 2.62487 28.7281C2.90671 28.7255 3.18513 28.6661 3.44344 28.5533C3.70174 28.4405 3.93462 28.2768 4.12812 28.0719C4.52785 27.638 4.74975 27.0696 4.74975 26.4797C4.74975 25.8898 4.52785 25.3214 4.12812 24.8875C3.93499 24.683 3.70261 24.5194 3.44487 24.4067C3.18713 24.2939 2.90931 24.2343 2.628 24.2312C2.34563 24.2334 2.06662 24.2927 1.80775 24.4055C1.54888 24.5182 1.31549 24.6822 1.12163 24.8875C0.7219 25.3214 0.5 25.8898 0.5 26.4797C0.5 27.0696 0.7219 27.638 1.12163 28.0719ZM3.06553 18.5312C3.2867 18.7657 3.55298 18.9529 3.84836 19.0818C4.14375 19.2107 4.46215 19.2785 4.78442 19.2812C5.1067 19.2785 5.4251 19.2107 5.72048 19.0818C6.01587 18.9529 6.28215 18.7657 6.50331 18.5312C6.96081 18.0354 7.21484 17.3856 7.21484 16.7109C7.21484 16.0363 6.96081 15.3864 6.50331 14.8906C6.28241 14.6557 6.01626 14.4678 5.72086 14.3384C5.42546 14.2089 5.10692 14.1406 4.78442 14.1375C4.46192 14.1406 4.14339 14.2089 3.84799 14.3384C3.55259 14.4678 3.28643 14.6557 3.06553 14.8906C2.60803 15.3864 2.354 16.0363 2.354 16.7109C2.354 17.3856 2.60803 18.0354 3.06553 18.5312ZM8.71911 10.875C9.2254 11.4125 9.93796 11.725 10.6568 11.725C11.3693 11.725 12.0819 11.4125 12.5882 10.875C13.1019 10.3171 13.387 9.58648 13.387 8.82812C13.387 8.06977 13.1019 7.33914 12.5882 6.78125C12.3398 6.51637 12.0403 6.30451 11.7078 6.15843C11.3754 6.01235 11.0168 5.93507 10.6536 5.93125C9.93796 5.93125 9.2254 6.24375 8.71911 6.78125C8.2054 7.33914 7.92024 8.06977 7.92024 8.82812C7.92024 9.58648 8.2054 10.3171 8.71911 10.875ZM16.9729 6.59375C17.5354 7.1875 18.3261 7.53437 19.1199 7.53437C19.9138 7.53437 20.7045 7.19063 21.267 6.59375C21.8392 5.97428 22.1569 5.16199 22.1569 4.31875C22.1569 3.47551 21.8392 2.66322 21.267 2.04375C20.9909 1.75047 20.6584 1.51599 20.2895 1.35435C19.9205 1.19271 19.5227 1.10726 19.1199 1.10313C18.7172 1.10726 18.3194 1.19271 17.9504 1.35435C17.5815 1.51599 17.249 1.75047 16.9729 2.04375C16.4014 2.66356 16.0841 3.47572 16.0841 4.31875C16.0841 5.16178 16.4014 5.97394 16.9729 6.59375ZM26.233 6.54063C26.8518 7.19688 27.7238 7.57813 28.5988 7.57813C29.4739 7.57813 30.3427 7.19688 30.9615 6.54063C31.5899 5.85908 31.9388 4.96604 31.9388 4.03906C31.9388 3.11208 31.5899 2.21905 30.9615 1.5375C30.6576 1.21394 30.2913 0.955221 29.8847 0.77692C29.4781 0.59862 29.0396 0.504423 28.5957 0.5C27.7206 0.5 26.8487 0.88125 26.2299 1.5375C25.6015 2.21905 25.2527 3.11208 25.2527 4.03906C25.2527 4.96604 25.6015 5.85908 26.2299 6.54063H26.233ZM34.7212 10.7688C35.3963 11.4812 36.3463 11.8969 37.2964 11.8969C38.2527 11.8969 39.2028 11.4812 39.8747 10.7688C40.56 10.0255 40.9404 9.05155 40.9404 8.04063C40.9404 7.0297 40.56 6.05579 39.8747 5.3125C39.5435 4.95983 39.1443 4.67781 38.7012 4.4834C38.2581 4.28899 37.7803 4.18622 37.2964 4.18125C36.3432 4.18125 35.3963 4.59687 34.7212 5.3125C34.0359 6.05579 33.6555 7.0297 33.6555 8.04063C33.6555 9.05155 34.0359 10.0255 34.7212 10.7688ZM40.7779 18.5094C41.5092 19.2844 42.5375 19.7344 43.5719 19.7344C44.6032 19.7344 45.6346 19.2844 46.3628 18.5094C47.1051 17.7038 47.5172 16.6485 47.5172 15.5531C47.5172 14.4577 47.1051 13.4024 46.3628 12.5969C46.0041 12.2152 45.572 11.91 45.0924 11.6995C44.6128 11.489 44.0956 11.3776 43.5719 11.3719C42.5375 11.3719 41.5092 11.8219 40.7779 12.5969C40.0356 13.4024 39.6235 14.4577 39.6235 15.5531C39.6235 16.6485 40.0356 17.7038 40.7779 18.5094ZM43.2406 28.4719C44.0282 29.3063 45.1345 29.7906 46.2503 29.7906C47.3628 29.7906 48.4692 29.3063 49.2567 28.4719C50.0562 27.6041 50.5 26.4674 50.5 25.2875C50.5 24.1076 50.0562 22.9709 49.2567 22.1031C48.8705 21.6916 48.4051 21.3623 47.8885 21.1352C47.3718 20.908 46.8146 20.7876 46.2503 20.7812C45.1345 20.7812 44.0313 21.2688 43.2406 22.1031C42.4405 22.9706 41.9963 24.1074 41.9963 25.2875C41.9963 26.4676 42.4405 27.6044 43.2406 28.4719Z" fill="white"/>
</svg>
